<?xml version="1.0" encoding="UTF-8" standalone="no"?>
<svg width="600" height="400" xmlns="http://www.w3.org/2000/svg">
  <rect width="600" height="400" fill="#1a2035"/>
  <text x="300" y="40" font-family="Arial" font-size="20" text-anchor="middle" fill="#ffffff">AI Strategy Framework</text>
  
  <!-- Central circle -->
  <circle cx="300" cy="200" r="70" fill="#1a2035" stroke="#00a8ff" stroke-width="3"/>
  <text x="300" y="195" font-family="Arial" font-size="16" text-anchor="middle" fill="#ffffff">AI Strategy</text>
  <text x="300" y="215" font-family="Arial" font-size="12" text-anchor="middle" fill="#ffffff">Core Vision</text>
  
  <!-- Surrounding elements -->
  <circle cx="300" cy="80" r="30" fill="#1a2035" stroke="#9c27b0" stroke-width="2"/>
  <text x="300" y="85" font-family="Arial" font-size="10" text-anchor="middle" fill="#ffffff">Business Goals</text>
  <line x1="300" y1="110" x2="300" y2="130" stroke="#9c27b0" stroke-width="2"/>
  
  <circle cx="450" cy="140" r="30" fill="#1a2035" stroke="#4caf50" stroke-width="2"/>
  <text x="450" y="145" font-family="Arial" font-size="10" text-anchor="middle" fill="#ffffff">Technology</text>
  <line x1="420" y1="140" x2="370" y2="170" stroke="#4caf50" stroke-width="2"/>
  
  <circle cx="450" cy="260" r="30" fill="#1a2035" stroke="#ff9800" stroke-width="2"/>
  <text x="450" y="265" font-family="Arial" font-size="10" text-anchor="middle" fill="#ffffff">Implementation</text>
  <line x1="420" y1="260" x2="370" y2="230" stroke="#ff9800" stroke-width="2"/>
  
  <circle cx="300" cy="320" r="30" fill="#1a2035" stroke="#e91e63" stroke-width="2"/>
  <text x="300" y="325" font-family="Arial" font-size="10" text-anchor="middle" fill="#ffffff">Governance</text>
  <line x1="300" y1="290" x2="300" y2="270" stroke="#e91e63" stroke-width="2"/>
  
  <circle cx="150" cy="260" r="30" fill="#1a2035" stroke="#3f51b5" stroke-width="2"/>
  <text x="150" y="265" font-family="Arial" font-size="10" text-anchor="middle" fill="#ffffff">Data Strategy</text>
  <line x1="180" y1="260" x2="230" y2="230" stroke="#3f51b5" stroke-width="2"/>
  
  <circle cx="150" cy="140" r="30" fill="#1a2035" stroke="#00bcd4" stroke-width="2"/>
  <text x="150" y="145" font-family="Arial" font-size="10" text-anchor="middle" fill="#ffffff">Talent</text>
  <line x1="180" y1="140" x2="230" y2="170" stroke="#00bcd4" stroke-width="2"/>
</svg>
