<?xml version="1.0" encoding="UTF-8" standalone="no"?>
<svg width="600" height="400" xmlns="http://www.w3.org/2000/svg">
  <defs>
    <linearGradient id="grad1" x1="0%" y1="0%" x2="100%" y2="100%">
      <stop offset="0%" style="stop-color:#0a1929;stop-opacity:1" />
      <stop offset="100%" style="stop-color:#1a365d;stop-opacity:1" />
    </linearGradient>
  </defs>
  <rect width="100%" height="100%" fill="url(#grad1)"/>
  
  <!-- Abstract AI visualization -->
  <g stroke="#4285f4" stroke-width="2" fill="none">
    <circle cx="300" cy="200" r="80" opacity="0.6"/>
    <circle cx="300" cy="200" r="120" opacity="0.4"/>
    <circle cx="300" cy="200" r="160" opacity="0.2"/>
    
    <!-- Neural network nodes -->
    <circle cx="200" cy="150" r="10" fill="#00c8ff" opacity="0.8"/>
    <circle cx="250" cy="100" r="10" fill="#00c8ff" opacity="0.8"/>
    <circle cx="300" cy="80" r="10" fill="#00c8ff" opacity="0.8"/>
    <circle cx="350" cy="100" r="10" fill="#00c8ff" opacity="0.8"/>
    <circle cx="400" cy="150" r="10" fill="#00c8ff" opacity="0.8"/>
    
    <circle cx="200" cy="250" r="10" fill="#00c8ff" opacity="0.8"/>
    <circle cx="250" cy="300" r="10" fill="#00c8ff" opacity="0.8"/>
    <circle cx="300" cy="320" r="10" fill="#00c8ff" opacity="0.8"/>
    <circle cx="350" cy="300" r="10" fill="#00c8ff" opacity="0.8"/>
    <circle cx="400" cy="250" r="10" fill="#00c8ff" opacity="0.8"/>
    
    <!-- Connections -->
    <line x1="200" y1="150" x2="300" y2="200" stroke="#00c8ff" opacity="0.5"/>
    <line x1="250" y1="100" x2="300" y2="200" stroke="#00c8ff" opacity="0.5"/>
    <line x1="300" y1="80" x2="300" y2="200" stroke="#00c8ff" opacity="0.5"/>
    <line x1="350" y1="100" x2="300" y2="200" stroke="#00c8ff" opacity="0.5"/>
    <line x1="400" y1="150" x2="300" y2="200" stroke="#00c8ff" opacity="0.5"/>
    
    <line x1="200" y1="250" x2="300" y2="200" stroke="#00c8ff" opacity="0.5"/>
    <line x1="250" y1="300" x2="300" y2="200" stroke="#00c8ff" opacity="0.5"/>
    <line x1="300" y1="320" x2="300" y2="200" stroke="#00c8ff" opacity="0.5"/>
    <line x1="350" y1="300" x2="300" y2="200" stroke="#00c8ff" opacity="0.5"/>
    <line x1="400" y1="250" x2="300" y2="200" stroke="#00c8ff" opacity="0.5"/>
  </g>
</svg>
