<?xml version="1.0" encoding="UTF-8" standalone="no"?>
<svg width="600" height="400" xmlns="http://www.w3.org/2000/svg">
  <defs>
    <linearGradient id="grad1" x1="0%" y1="0%" x2="100%" y2="100%">
      <stop offset="0%" style="stop-color:#0a1929;stop-opacity:1" />
      <stop offset="100%" style="stop-color:#1a365d;stop-opacity:1" />
    </linearGradient>
  </defs>
  <rect width="100%" height="100%" fill="url(#grad1)"/>
  
  <!-- Data visualization elements -->
  <g fill="#00c8ff" opacity="0.8">
    <rect x="100" y="250" width="40" height="100" />
    <rect x="160" y="200" width="40" height="150" />
    <rect x="220" y="150" width="40" height="200" />
    <rect x="280" y="100" width="40" height="250" />
    <rect x="340" y="180" width="40" height="170" />
    <rect x="400" y="220" width="40" height="130" />
    <rect x="460" y="270" width="40" height="80" />
  </g>
  
  <!-- Circuit board pattern -->
  <g stroke="#4285f4" stroke-width="1" opacity="0.3" fill="none">
    <line x1="50" y1="50" x2="550" y2="50" />
    <line x1="50" y1="100" x2="550" y2="100" />
    <line x1="50" y1="350" x2="550" y2="350" />
    
    <line x1="50" y1="50" x2="50" y2="350" />
    <line x1="550" y1="50" x2="550" y2="350" />
    
    <circle cx="50" cy="50" r="5" fill="#4285f4" />
    <circle cx="550" cy="50" r="5" fill="#4285f4" />
    <circle cx="50" cy="350" r="5" fill="#4285f4" />
    <circle cx="550" cy="350" r="5" fill="#4285f4" />
    
    <path d="M 100 50 C 100 30, 150 30, 150 50" />
    <path d="M 200 50 C 200 30, 250 30, 250 50" />
    <path d="M 300 50 C 300 30, 350 30, 350 50" />
    <path d="M 400 50 C 400 30, 450 30, 450 50" />
    
    <path d="M 100 350 C 100 370, 150 370, 150 350" />
    <path d="M 200 350 C 200 370, 250 370, 250 350" />
    <path d="M 300 350 C 300 370, 350 370, 350 350" />
    <path d="M 400 350 C 400 370, 450 370, 450 350" />
  </g>
  
  <text x="300" y="50" font-family="Arial, sans-serif" font-size="24" fill="#ffffff" text-anchor="middle">AI Custom Solutions Case Study</text>
</svg>
