<?xml version="1.0" encoding="UTF-8"?>
<svg width="800px" height="600px" viewBox="0 0 800 600" version="1.1" xmlns="http://www.w3.org/2000/svg" xmlns:xlink="http://www.w3.org/1999/xlink">
    <title>AI Custom Solutions</title>
    <defs>
        <linearGradient x1="0%" y1="0%" x2="100%" y2="100%" id="gradient-blue">
            <stop stop-color="#0066FF" offset="0%"></stop>
            <stop stop-color="#00C2FF" offset="100%"></stop>
        </linearGradient>
        <linearGradient x1="0%" y1="0%" x2="100%" y2="100%" id="gradient-purple">
            <stop stop-color="#7000FF" offset="0%"></stop>
            <stop stop-color="#0066FF" offset="100%"></stop>
        </linearGradient>
        <linearGradient x1="0%" y1="0%" x2="100%" y2="100%" id="gradient-gold">
            <stop stop-color="#FFB800" offset="0%"></stop>
            <stop stop-color="#FF8A00" offset="100%"></stop>
        </linearGradient>
    </defs>
    <g stroke="none" stroke-width="1" fill="none" fill-rule="evenodd">
        <!-- Background Elements -->
        <circle fill="#0A1020" opacity="0.1" cx="400" cy="300" r="250"></circle>
        <circle fill="#0A1020" opacity="0.2" cx="400" cy="300" r="200"></circle>
        
        <!-- Robot Body Base -->
        <path d="M350,200 L450,200 L450,350 L350,350 Z" fill="#0A1020" stroke="url(#gradient-blue)" stroke-width="3"></path>
        
        <!-- Robot Head -->
        <path d="M350,150 L450,150 L450,200 L350,200 Z" fill="#0A1020" stroke="url(#gradient-purple)" stroke-width="3"></path>
        
        <!-- Robot Eyes -->
        <circle fill="url(#gradient-blue)" cx="380" cy="175" r="10"></circle>
        <circle fill="url(#gradient-blue)" cx="420" cy="175" r="10"></circle>
        
        <!-- Robot Mouth -->
        <path d="M380,190 L420,190" stroke="url(#gradient-gold)" stroke-width="3" stroke-linecap="round"></path>
        
        <!-- Robot Arms -->
        <path d="M350,220 L300,250 L300,300 L350,270" fill="#0A1020" stroke="url(#gradient-purple)" stroke-width="2"></path>
        <path d="M450,220 L500,250 L500,300 L450,270" fill="#0A1020" stroke="url(#gradient-purple)" stroke-width="2"></path>
        
        <!-- Robot Legs -->
        <path d="M370,350 L370,400 L400,420 L430,400 L430,350" fill="#0A1020" stroke="url(#gradient-gold)" stroke-width="2"></path>
        <path d="M370,350 L400,350 L430,350" stroke="url(#gradient-gold)" stroke-width="2"></path>
        
        <!-- Data Flow Left -->
        <path d="M300,250 L250,250 L200,300" stroke="url(#gradient-blue)" stroke-width="2" stroke-dasharray="5,5"></path>
        <path d="M300,300 L250,300 L200,350" stroke="url(#gradient-blue)" stroke-width="2" stroke-dasharray="5,5"></path>
        
        <!-- Data Flow Right -->
        <path d="M500,250 L550,250 L600,300" stroke="url(#gradient-blue)" stroke-width="2" stroke-dasharray="5,5"></path>
        <path d="M500,300 L550,300 L600,350" stroke="url(#gradient-blue)" stroke-width="2" stroke-dasharray="5,5"></path>
        
        <!-- Data Nodes Left -->
        <circle fill="url(#gradient-purple)" cx="250" cy="250" r="8"></circle>
        <circle fill="url(#gradient-purple)" cx="250" cy="300" r="8"></circle>
        <circle fill="url(#gradient-gold)" cx="200" cy="300" r="15"></circle>
        <circle fill="url(#gradient-gold)" cx="200" cy="350" r="15"></circle>
        
        <!-- Data Nodes Right -->
        <circle fill="url(#gradient-purple)" cx="550" cy="250" r="8"></circle>
        <circle fill="url(#gradient-purple)" cx="550" cy="300" r="8"></circle>
        <circle fill="url(#gradient-gold)" cx="600" cy="300" r="15"></circle>
        <circle fill="url(#gradient-gold)" cx="600" cy="350" r="15"></circle>
        
        <!-- Circuit Elements Left -->
        <path d="M150,250 L250,250" stroke="url(#gradient-purple)" stroke-width="1" opacity="0.6"></path>
        <path d="M150,300 L250,300" stroke="url(#gradient-purple)" stroke-width="1" opacity="0.6"></path>
        <path d="M150,350 L200,350" stroke="url(#gradient-purple)" stroke-width="1" opacity="0.6"></path>
        <path d="M150,250 L150,350" stroke="url(#gradient-purple)" stroke-width="1" opacity="0.6"></path>
        <circle fill="url(#gradient-blue)" cx="150" cy="250" r="5" opacity="0.8"></circle>
        <circle fill="url(#gradient-blue)" cx="150" cy="300" r="5" opacity="0.8"></circle>
        <circle fill="url(#gradient-blue)" cx="150" cy="350" r="5" opacity="0.8"></circle>
        
        <!-- Circuit Elements Right -->
        <path d="M650,250 L550,250" stroke="url(#gradient-purple)" stroke-width="1" opacity="0.6"></path>
        <path d="M650,300 L550,300" stroke="url(#gradient-purple)" stroke-width="1" opacity="0.6"></path>
        <path d="M650,350 L600,350" stroke="url(#gradient-purple)" stroke-width="1" opacity="0.6"></path>
        <path d="M650,250 L650,350" stroke="url(#gradient-purple)" stroke-width="1" opacity="0.6"></path>
        <circle fill="url(#gradient-blue)" cx="650" cy="250" r="5" opacity="0.8"></circle>
        <circle fill="url(#gradient-blue)" cx="650" cy="300" r="5" opacity="0.8"></circle>
        <circle fill="url(#gradient-blue)" cx="650" cy="350" r="5" opacity="0.8"></circle>
        
        <!-- Robot Control Panel -->
        <path d="M375,250 L425,250 L425,300 L375,300 Z" fill="url(#gradient-blue)" opacity="0.3"></path>
        <path d="M385,260 L415,260" stroke="#FFFFFF" stroke-width="1" opacity="0.8"></path>
        <path d="M385,270 L415,270" stroke="#FFFFFF" stroke-width="1" opacity="0.8"></path>
        <path d="M385,280 L415,280" stroke="#FFFFFF" stroke-width="1" opacity="0.8"></path>
        <path d="M385,290 L415,290" stroke="#FFFFFF" stroke-width="1" opacity="0.8"></path>
        
        <!-- Robot Antenna -->
        <path d="M400,150 L400,120" stroke="url(#gradient-gold)" stroke-width="2"></path>
        <circle fill="url(#gradient-gold)" cx="400" cy="110" r="10"></circle>
        
        <!-- Data Flow Circles -->
        <circle fill="url(#gradient-blue)" opacity="0.2" cx="400" cy="110" r="20">
            <animate attributeName="r" values="20;30;20" dur="2s" repeatCount="indefinite" />
            <animate attributeName="opacity" values="0.2;0.1;0.2" dur="2s" repeatCount="indefinite" />
        </circle>
        
        <!-- Gear Elements -->
        <g transform="translate(200, 200)">
            <path d="M30,0 L35,10 L45,10 L50,0 L45,-10 L35,-10 Z" fill="url(#gradient-gold)" opacity="0.8" transform="rotate(0)"></path>
            <path d="M30,0 L35,10 L45,10 L50,0 L45,-10 L35,-10 Z" fill="url(#gradient-gold)" opacity="0.8" transform="rotate(60)"></path>
            <path d="M30,0 L35,10 L45,10 L50,0 L45,-10 L35,-10 Z" fill="url(#gradient-gold)" opacity="0.8" transform="rotate(120)"></path>
            <path d="M30,0 L35,10 L45,10 L50,0 L45,-10 L35,-10 Z" fill="url(#gradient-gold)" opacity="0.8" transform="rotate(180)"></path>
            <path d="M30,0 L35,10 L45,10 L50,0 L45,-10 L35,-10 Z" fill="url(#gradient-gold)" opacity="0.8" transform="rotate(240)"></path>
            <path d="M30,0 L35,10 L45,10 L50,0 L45,-10 L35,-10 Z" fill="url(#gradient-gold)" opacity="0.8" transform="rotate(300)"></path>
            <circle fill="#0A1020" cx="0" cy="0" r="15"></circle>
            <circle fill="url(#gradient-blue)" cx="0" cy="0" r="10"></circle>
        </g>
        
        <g transform="translate(600, 200)">
            <path d="M30,0 L35,10 L45,10 L50,0 L45,-10 L35,-10 Z" fill="url(#gradient-gold)" opacity="0.8" transform="rotate(0)"></path>
            <path d="M30,0 L35,10 L45,10 L50,0 L45,-10 L35,-10 Z" fill="url(#gradient-gold)" opacity="0.8" transform="rotate(60)"></path>
            <path d="M30,0 L35,10 L45,10 L50,0 L45,-10 L35,-10 Z" fill="url(#gradient-gold)" opacity="0.8" transform="rotate(120)"></path>
            <path d="M30,0 L35,10 L45,10 L50,0 L45,-10 L35,-10 Z" fill="url(#gradient-gold)" opacity="0.8" transform="rotate(180)"></path>
            <path d="M30,0 L35,10 L45,10 L50,0 L45,-10 L35,-10 Z" fill="url(#gradient-gold)" opacity="0.8" transform="rotate(240)"></path>
            <path d="M30,0 L35,10 L45,10 L50,0 L45,-10 L35,-10 Z" fill="url(#gradient-gold)" opacity="0.8" transform="rotate(300)"></path>
            <circle fill="#0A1020" cx="0" cy="0" r="15"></circle>
            <circle fill="url(#gradient-blue)" cx="0" cy="0" r="10"></circle>
        </g>
        
        <!-- Pulse Animation Elements -->
        <circle fill="url(#gradient-blue)" opacity="0.2" cx="400" cy="300" r="70">
            <animate attributeName="r" values="70;100;70" dur="4s" repeatCount="indefinite" />
            <animate attributeName="opacity" values="0.2;0.1;0.2" dur="4s" repeatCount="indefinite" />
        </circle>
        
        <circle fill="url(#gradient-purple)" opacity="0.1" cx="400" cy="300" r="120">
            <animate attributeName="r" values="120;150;120" dur="6s" repeatCount="indefinite" />
            <animate attributeName="opacity" values="0.1;0.05;0.1" dur="6s" repeatCount="indefinite" />
        </circle>
    </g>
</svg>
