<?xml version="1.0" encoding="UTF-8" standalone="no"?>
<svg width="1200" height="600" xmlns="http://www.w3.org/2000/svg">
  <defs>
    <linearGradient id="grad1" x1="0%" y1="0%" x2="100%" y2="100%">
      <stop offset="0%" style="stop-color:#0a1929;stop-opacity:1" />
      <stop offset="100%" style="stop-color:#1a365d;stop-opacity:1" />
    </linearGradient>
    <radialGradient id="grad2" cx="50%" cy="50%" r="50%" fx="50%" fy="50%">
      <stop offset="0%" style="stop-color:#4285f4;stop-opacity:0.3" />
      <stop offset="100%" style="stop-color:#0a1929;stop-opacity:0" />
    </radialGradient>
  </defs>
  <rect width="100%" height="100%" fill="url(#grad1)"/>
  <circle cx="300" cy="300" r="250" fill="url(#grad2)"/>
  <circle cx="900" cy="150" r="100" fill="url(#grad2)"/>
  
  <!-- Abstract tech pattern -->
  <g stroke="#4285f4" stroke-width="1" opacity="0.2">
    <line x1="0" y1="100" x2="1200" y2="100" />
    <line x1="0" y1="200" x2="1200" y2="200" />
    <line x1="0" y1="300" x2="1200" y2="300" />
    <line x1="0" y1="400" x2="1200" y2="400" />
    <line x1="0" y1="500" x2="1200" y2="500" />
    
    <line x1="100" y1="0" x2="100" y2="600" />
    <line x1="300" y1="0" x2="300" y2="600" />
    <line x1="500" y1="0" x2="500" y2="600" />
    <line x1="700" y1="0" x2="700" y2="600" />
    <line x1="900" y1="0" x2="900" y2="600" />
    <line x1="1100" y1="0" x2="1100" y2="600" />
  </g>
  
  <!-- Digital particles -->
  <g fill="#00c8ff" opacity="0.5">
    <circle cx="150" cy="150" r="2" />
    <circle cx="450" cy="250" r="2" />
    <circle cx="750" cy="350" r="2" />
    <circle cx="850" cy="150" r="2" />
    <circle cx="950" cy="450" r="2" />
    <circle cx="250" cy="550" r="2" />
    <circle cx="650" cy="50" r="2" />
    <circle cx="350" cy="450" r="2" />
    <circle cx="550" cy="250" r="2" />
    <circle cx="1050" cy="350" r="2" />
  </g>
</svg>
