<?xml version="1.0" encoding="UTF-8" standalone="no"?>
<svg width="800" height="500" xmlns="http://www.w3.org/2000/svg">
  <defs>
    <linearGradient id="grad1" x1="0%" y1="0%" x2="100%" y2="100%">
      <stop offset="0%" style="stop-color:#0a1929;stop-opacity:1" />
      <stop offset="100%" style="stop-color:#1a365d;stop-opacity:1" />
    </linearGradient>
  </defs>
  <rect width="100%" height="100%" fill="url(#grad1)"/>
  
  <!-- Abstract AI visualization -->
  <g stroke="#4285f4" stroke-width="2" fill="none">
    <!-- Central node -->
    <circle cx="400" cy="250" r="100" opacity="0.6"/>
    
    <!-- Outer rings -->
    <circle cx="400" cy="250" r="150" opacity="0.4" stroke-dasharray="10,5"/>
    <circle cx="400" cy="250" r="200" opacity="0.2" stroke-dasharray="5,5"/>
    
    <!-- Connected nodes -->
    <circle cx="200" cy="150" r="20" fill="#00c8ff" opacity="0.8"/>
    <circle cx="600" cy="150" r="20" fill="#00c8ff" opacity="0.8"/>
    <circle cx="200" cy="350" r="20" fill="#00c8ff" opacity="0.8"/>
    <circle cx="600" cy="350" r="20" fill="#00c8ff" opacity="0.8"/>
    
    <!-- Connections -->
    <line x1="400" y1="250" x2="200" y2="150" opacity="0.5"/>
    <line x1="400" y1="250" x2="600" y2="150" opacity="0.5"/>
    <line x1="400" y1="250" x2="200" y2="350" opacity="0.5"/>
    <line x1="400" y1="250" x2="600" y2="350" opacity="0.5"/>
    
    <!-- Data flow animation -->
    <circle cx="300" cy="200" r="5" fill="#ffffff">
      <animate attributeName="cx" values="200,150;400,250" dur="3s" repeatCount="indefinite" />
      <animate attributeName="cy" values="150;250" dur="3s" repeatCount="indefinite" />
    </circle>
    <circle cx="500" cy="200" r="5" fill="#ffffff">
      <animate attributeName="cx" values="600,150;400,250" dur="4s" repeatCount="indefinite" />
      <animate attributeName="cy" values="150;250" dur="4s" repeatCount="indefinite" />
    </circle>
    <circle cx="300" cy="300" r="5" fill="#ffffff">
      <animate attributeName="cx" values="200,350;400,250" dur="3.5s" repeatCount="indefinite" />
      <animate attributeName="cy" values="350;250" dur="3.5s" repeatCount="indefinite" />
    </circle>
    <circle cx="500" cy="300" r="5" fill="#ffffff">
      <animate attributeName="cx" values="600,350;400,250" dur="4.5s" repeatCount="indefinite" />
      <animate attributeName="cy" values="350;250" dur="4.5s" repeatCount="indefinite" />
    </circle>
  </g>
  
  <!-- Digital particles -->
  <g fill="#00c8ff" opacity="0.5">
    <circle cx="250" cy="100" r="3" />
    <circle cx="550" cy="100" r="3" />
    <circle cx="250" cy="400" r="3" />
    <circle cx="550" cy="400" r="3" />
    <circle cx="100" cy="250" r="3" />
    <circle cx="700" cy="250" r="3" />
    <circle cx="400" cy="100" r="3" />
    <circle cx="400" cy="400" r="3" />
  </g>
</svg>
