<?xml version="1.0" encoding="UTF-8"?>
<svg width="800" height="600" viewBox="0 0 800 600" fill="none" xmlns="http://www.w3.org/2000/svg">
  <!-- Background with gradient -->
  <rect width="800" height="600" fill="url(#logistics_gradient)"/>
  
  <!-- Road path -->
  <path d="M0,350 L800,350" stroke="#ffffff" stroke-width="20" stroke-dasharray="40,20" opacity="0.8"/>
  
  <!-- Delivery truck -->
  <rect x="500" y="300" width="150" height="80" rx="10" fill="#ffffff" opacity="0.8"/>
  <rect x="450" y="330" width="50" height="50" rx="5" fill="#ffffff" opacity="0.9"/>
  <circle cx="480" cy="400" r="20" fill="#ffffff" opacity="0.6"/>
  <circle cx="600" cy="400" r="20" fill="#ffffff" opacity="0.6"/>
  <rect x="510" y="320" width="30" height="20" fill="#ffffff" opacity="0.4"/>
  <rect x="550" y="320" width="30" height="20" fill="#ffffff" opacity="0.4"/>
  
  <!-- Shipping container -->
  <rect x="150" y="300" width="120" height="80" fill="#ffffff" opacity="0.8"/>
  <line x1="150" y1="320" x2="270" y2="320" stroke="#ffffff" stroke-width="2" opacity="0.9"/>
  <line x1="150" y1="340" x2="270" y2="340" stroke="#ffffff" stroke-width="2" opacity="0.9"/>
  <line x1="150" y1="360" x2="270" y2="360" stroke="#ffffff" stroke-width="2" opacity="0.9"/>
  
  <!-- Airplane -->
  <path d="M600,150 L700,180 L700,200 L600,230 L500,200 L500,180 Z" fill="#ffffff" opacity="0.7"/>
  <rect x="550" y="190" width="100" height="10" fill="#ffffff" opacity="0.8"/>
  <path d="M600,150 L620,120 L630,120 L620,150 Z" fill="#ffffff" opacity="0.8"/>
  <path d="M550,200 L530,240 L550,240 L570,200 Z" fill="#ffffff" opacity="0.7"/>
  <path d="M650,200 L670,240 L650,240 L630,200 Z" fill="#ffffff" opacity="0.7"/>
  
  <!-- Ship -->
  <path d="M100,200 L150,250 L350,250 L400,200 Z" fill="#ffffff" opacity="0.7"/>
  <rect x="150" y="170" width="200" height="30" fill="#ffffff" opacity="0.8"/>
  <rect x="200" y="140" width="30" height="30" fill="#ffffff" opacity="0.8"/>
  <rect x="250" y="140" width="30" height="30" fill="#ffffff" opacity="0.8"/>
  <path d="M100,200 C150,220 350,220 400,200" stroke="#ffffff" stroke-width="2" opacity="0.9"/>
  
  <!-- Package boxes -->
  <rect x="100" y="400" width="40" height="40" fill="#ffffff" opacity="0.7"/>
  <rect x="150" y="420" width="30" height="30" fill="#ffffff" opacity="0.7"/>
  <rect x="190" y="410" width="35" height="35" fill="#ffffff" opacity="0.7"/>
  
  <!-- Location pins -->
  <circle cx="300" cy="450" r="20" fill="#ffffff" opacity="0.6"/>
  <path d="M300,430 L300,470" stroke="#ffffff" stroke-width="4" opacity="0.8"/>
  <path d="M280,450 L320,450" stroke="#ffffff" stroke-width="4" opacity="0.8"/>
  
  <circle cx="400" cy="450" r="20" fill="#ffffff" opacity="0.6"/>
  <path d="M400,430 L400,470" stroke="#ffffff" stroke-width="4" opacity="0.8"/>
  <path d="M380,450 L420,450" stroke="#ffffff" stroke-width="4" opacity="0.8"/>
  
  <!-- Gradient definition -->
  <defs>
    <linearGradient id="logistics_gradient" x1="0" y1="0" x2="800" y2="600" gradientUnits="userSpaceOnUse">
      <stop offset="0" stop-color="#4B79A1"/>
      <stop offset="1" stop-color="#283E51"/>
    </linearGradient>
  </defs>
</svg>
