<?xml version="1.0" encoding="UTF-8"?>
<svg width="800" height="600" viewBox="0 0 800 600" fill="none" xmlns="http://www.w3.org/2000/svg">
  <!-- Background with gradient -->
  <rect width="800" height="600" fill="url(#retail_gradient)"/>
  
  <!-- Shopping bag -->
  <path d="M300,200 L250,350 L550,350 L500,200 Z" fill="#ffffff" opacity="0.7"/>
  <path d="M250,350 L250,500 L550,500 L550,350 Z" fill="#ffffff" opacity="0.8"/>
  <path d="M320,200 L320,150 C320,120 350,100 400,100 C450,100 480,120 480,150 L480,200" 
        stroke="#ffffff" stroke-width="12" stroke-linecap="round" opacity="0.9"/>
  
  <!-- Price tags -->
  <rect x="150" y="200" width="80" height="40" rx="10" fill="#ffffff" opacity="0.6"/>
  <circle cx="150" cy="220" r="15" fill="#ffffff" opacity="0.8"/>
  
  <rect x="600" y="250" width="80" height="40" rx="10" fill="#ffffff" opacity="0.6"/>
  <circle cx="600" cy="270" r="15" fill="#ffffff" opacity="0.8"/>
  
  <!-- Shopping cart -->
  <circle cx="180" cy="450" r="20" fill="#ffffff" opacity="0.7"/>
  <circle cx="240" cy="450" r="20" fill="#ffffff" opacity="0.7"/>
  <path d="M120,380 L150,380 L180,430 L250,430 L280,350 L150,350" 
        stroke="#ffffff" stroke-width="8" stroke-linecap="round" stroke-linejoin="round" opacity="0.7"/>
  
  <!-- Store icon -->
  <path d="M600,400 L600,500 L700,500 L700,400" stroke="#ffffff" stroke-width="8" opacity="0.7"/>
  <path d="M580,400 L720,400 L650,350 Z" fill="#ffffff" opacity="0.7"/>
  <rect x="630" y="450" width="40" height="50" fill="#ffffff" opacity="0.5"/>
  
  <!-- Barcode -->
  <rect x="100" y="150" width="5" height="40" fill="#ffffff" opacity="0.8"/>
  <rect x="110" y="150" width="2" height="40" fill="#ffffff" opacity="0.8"/>
  <rect x="115" y="150" width="3" height="40" fill="#ffffff" opacity="0.8"/>
  <rect x="125" y="150" width="4" height="40" fill="#ffffff" opacity="0.8"/>
  <rect x="135" y="150" width="1" height="40" fill="#ffffff" opacity="0.8"/>
  <rect x="140" y="150" width="3" height="40" fill="#ffffff" opacity="0.8"/>
  <rect x="150" y="150" width="2" height="40" fill="#ffffff" opacity="0.8"/>
  <rect x="155" y="150" width="5" height="40" fill="#ffffff" opacity="0.8"/>
  
  <!-- Gradient definition -->
  <defs>
    <linearGradient id="retail_gradient" x1="0" y1="0" x2="800" y2="600" gradientUnits="userSpaceOnUse">
      <stop offset="0" stop-color="#FF416C"/>
      <stop offset="1" stop-color="#FF4B2B"/>
    </linearGradient>
  </defs>
</svg>
