<?xml version="1.0" encoding="UTF-8" standalone="no"?>
<svg width="1200" height="600" xmlns="http://www.w3.org/2000/svg">
  <defs>
    <linearGradient id="grad1" x1="0%" y1="0%" x2="100%" y2="100%">
      <stop offset="0%" style="stop-color:#0a1929;stop-opacity:1" />
      <stop offset="100%" style="stop-color:#1a365d;stop-opacity:1" />
    </linearGradient>
    <radialGradient id="grad2" cx="50%" cy="50%" r="50%" fx="50%" fy="50%">
      <stop offset="0%" style="stop-color:#4285f4;stop-opacity:0.2" />
      <stop offset="100%" style="stop-color:#0a1929;stop-opacity:0" />
    </radialGradient>
  </defs>
  <rect width="100%" height="100%" fill="url(#grad1)"/>
  
  <!-- Abstract tech pattern -->
  <g stroke="#4285f4" stroke-width="1" opacity="0.1">
    <line x1="0" y1="100" x2="1200" y2="100" />
    <line x1="0" y1="200" x2="1200" y2="200" />
    <line x1="0" y1="300" x2="1200" y2="300" />
    <line x1="0" y1="400" x2="1200" y2="400" />
    <line x1="0" y1="500" x2="1200" y2="500" />
    
    <line x1="100" y1="0" x2="100" y2="600" />
    <line x1="300" y1="0" x2="300" y2="600" />
    <line x1="500" y1="0" x2="500" y2="600" />
    <line x1="700" y1="0" x2="700" y2="600" />
    <line x1="900" y1="0" x2="900" y2="600" />
    <line x1="1100" y1="0" x2="1100" y2="600" />
  </g>
  
  <!-- Stylized people silhouettes in meetings/discussions -->
  <g fill="#ffffff" opacity="0.15">
    <!-- Group 1 - Meeting -->
    <circle cx="250" cy="200" r="25" /> <!-- Head -->
    <rect x="235" y="225" width="30" height="60" rx="10" /> <!-- Body -->
    <circle cx="350" cy="200" r="25" /> <!-- Head -->
    <rect x="335" y="225" width="30" height="60" rx="10" /> <!-- Body -->
    <circle cx="450" cy="200" r="25" /> <!-- Head -->
    <rect x="435" y="225" width="30" height="60" rx="10" /> <!-- Body -->
    
    <!-- Meeting table -->
    <rect x="200" y="300" width="300" height="10" rx="5" />
    
    <!-- Group 2 - Handshake -->
    <circle cx="750" cy="200" r="25" /> <!-- Head -->
    <rect x="735" y="225" width="30" height="60" rx="10" /> <!-- Body -->
    <circle cx="850" cy="200" r="25" /> <!-- Head -->
    <rect x="835" y="225" width="30" height="60" rx="10" /> <!-- Body -->
    
    <!-- Handshake -->
    <rect x="765" y="260" width="70" height="10" rx="5" />
    
    <!-- Group 3 - Presentation -->
    <circle cx="250" cy="450" r="25" /> <!-- Presenter Head -->
    <rect x="235" y="475" width="30" height="60" rx="10" /> <!-- Presenter Body -->
    
    <!-- Audience -->
    <circle cx="350" cy="450" r="20" /> <!-- Head -->
    <rect x="340" y="470" width="20" height="40" rx="8" /> <!-- Body -->
    <circle cx="400" cy="450" r="20" /> <!-- Head -->
    <rect x="390" y="470" width="20" height="40" rx="8" /> <!-- Body -->
    <circle cx="450" cy="450" r="20" /> <!-- Head -->
    <rect x="440" y="470" width="20" height="40" rx="8" /> <!-- Body -->
    
    <!-- Presentation screen -->
    <rect x="150" y="380" width="80" height="60" rx="5" />
    
    <!-- Group 4 - Collaboration -->
    <circle cx="750" cy="450" r="22" /> <!-- Head -->
    <rect x="738" y="472" width="24" height="50" rx="8" /> <!-- Body -->
    <circle cx="800" cy="450" r="22" /> <!-- Head -->
    <rect x="788" y="472" width="24" height="50" rx="8" /> <!-- Body -->
    <circle cx="850" cy="450" r="22" /> <!-- Head -->
    <rect x="838" y="472" width="24" height="50" rx="8" /> <!-- Body -->
    <circle cx="900" cy="450" r="22" /> <!-- Head -->
    <rect x="888" y="472" width="24" height="50" rx="8" /> <!-- Body -->
    
    <!-- Collaborative project -->
    <circle cx="825" cy="400" r="40" />
  </g>
  
  <!-- Connection lines between people -->
  <g stroke="#00c8ff" stroke-width="2" opacity="0.2" stroke-dasharray="5,5" fill="none">
    <line x1="250" y1="200" x2="350" y2="200" />
    <line x1="350" y1="200" x2="450" y2="200" />
    <line x1="750" y1="200" x2="850" y2="200" />
    <line x1="250" y1="450" x2="350" y2="450" />
    <line x1="350" y1="450" x2="400" y2="450" />
    <line x1="400" y1="450" x2="450" y2="450" />
    <line x1="750" y1="450" x2="800" y2="450" />
    <line x1="800" y1="450" x2="850" y2="450" />
    <line x1="850" y1="450" x2="900" y2="450" />
  </g>
  
  <!-- Digital particles -->
  <g fill="#00c8ff" opacity="0.5">
    <circle cx="150" cy="150" r="2" />
    <circle cx="550" cy="250" r="2" />
    <circle cx="650" cy="350" r="2" />
    <circle cx="950" cy="150" r="2" />
    <circle cx="1050" cy="450" r="2" />
    <circle cx="150" cy="550" r="2" />
    <circle cx="550" cy="50" r="2" />
    <circle cx="650" cy="450" r="2" />
    <circle cx="950" cy="250" r="2" />
    <circle cx="1050" cy="350" r="2" />
  </g>
  
  <!-- Glowing spots -->
  <g fill="#4285f4" opacity="0.3">
    <circle cx="300" cy="200" r="100" />
    <circle cx="800" cy="200" r="80" />
    <circle cx="300" cy="450" r="80" />
    <circle cx="825" cy="450" r="100" />
  </g>
</svg>
