<svg width="600" height="400" viewBox="0 0 600 400" fill="none" xmlns="http://www.w3.org/2000/svg">
  <rect width="600" height="400" fill="#121A29"/>
  <path d="M300 100C355.228 100 400 144.772 400 200C400 255.228 355.228 300 300 300C244.772 300 200 255.228 200 200C200 144.772 244.772 100 300 100Z" fill="#0066FF" fill-opacity="0.1"/>
  <path d="M300 120C344.183 120 380 155.817 380 200C380 244.183 344.183 280 300 280C255.817 280 220 244.183 220 200C220 155.817 255.817 120 300 120Z" stroke="#0066FF" stroke-width="2" stroke-dasharray="4 4"/>
  
  <!-- Graduation cap -->
  <path d="M300 150L380 190L300 230L220 190L300 150Z" fill="#0066FF" fill-opacity="0.7"/>
  <path d="M260 200V240C260 240 280 260 300 260C320 260 340 240 340 240V200" stroke="#0066FF" stroke-width="3"/>
  <path d="M300 230V260" stroke="#0066FF" stroke-width="3"/>
  <path d="M350 190V230L360 240" stroke="#0066FF" stroke-width="3"/>
  
  <!-- Binary code background -->
  <text x="50" y="50" fill="#FFFFFF" fill-opacity="0.05" font-family="monospace" font-size="10">01001000 01100101 01101100 01101100 01101111</text>
  <text x="50" y="70" fill="#FFFFFF" fill-opacity="0.05" font-family="monospace" font-size="10">01000001 01001001 00100000 01000101 01100100</text>
  <text x="50" y="90" fill="#FFFFFF" fill-opacity="0.05" font-family="monospace" font-size="10">01110101 01100011 01100001 01110100 01101001</text>
  <text x="50" y="320" fill="#FFFFFF" fill-opacity="0.05" font-family="monospace" font-size="10">01001100 01100101 01100001 01110010 01101110</text>
  <text x="50" y="340" fill="#FFFFFF" fill-opacity="0.05" font-family="monospace" font-size="10">01000001 01001001 00100000 01001101 01001100</text>
  <text x="50" y="360" fill="#FFFFFF" fill-opacity="0.05" font-family="monospace" font-size="10">01000100 01100001 01110100 01100001 00100000</text>
  
  <!-- Connection lines -->
  <line x1="250" y1="150" x2="350" y2="250" stroke="#0066FF" stroke-width="1" stroke-opacity="0.3"/>
  <line x1="350" y1="150" x2="250" y2="250" stroke="#0066FF" stroke-width="1" stroke-opacity="0.3"/>
  
  <!-- Nodes -->
  <circle cx="250" cy="150" r="5" fill="#0066FF"/>
  <circle cx="350" cy="150" r="5" fill="#0066FF"/>
  <circle cx="250" cy="250" r="5" fill="#0066FF"/>
  <circle cx="350" cy="250" r="5" fill="#0066FF"/>
  
  <!-- Text -->
  <text x="300" y="330" fill="#FFFFFF" text-anchor="middle" font-family="Arial" font-size="24" font-weight="bold">AI Education</text>
</svg>
