<svg width="600" height="400" viewBox="0 0 600 400" fill="none" xmlns="http://www.w3.org/2000/svg">
  <rect width="600" height="400" fill="#121A29"/>
  <path d="M300 100C355.228 100 400 144.772 400 200C400 255.228 355.228 300 300 300C244.772 300 200 255.228 200 200C200 144.772 244.772 100 300 100Z" fill="#0066FF" fill-opacity="0.1"/>
  <path d="M300 120C344.183 120 380 155.817 380 200C380 244.183 344.183 280 300 280C255.817 280 220 244.183 220 200C220 155.817 255.817 120 300 120Z" stroke="#0066FF" stroke-width="2" stroke-dasharray="4 4"/>
  
  <!-- Financial chart -->
  <path d="M220 260H380V270H220V260Z" fill="#0066FF"/>
  <path d="M220 260V160" stroke="#0066FF" stroke-width="2"/>
  
  <!-- Bar chart -->
  <rect x="240" y="230" width="20" height="30" fill="#0066FF" fill-opacity="0.7"/>
  <rect x="270" y="210" width="20" height="50" fill="#0066FF" fill-opacity="0.7"/>
  <rect x="300" y="190" width="20" height="70" fill="#0066FF" fill-opacity="0.7"/>
  <rect x="330" y="220" width="20" height="40" fill="#0066FF" fill-opacity="0.7"/>
  <rect x="360" y="170" width="20" height="90" fill="#0066FF" fill-opacity="0.7"/>
  
  <!-- Line chart -->
  <path d="M220 200L250 210L280 190L310 170L340 180L370 150" stroke="#00C2FF" stroke-width="3"/>
  <circle cx="250" cy="210" r="4" fill="#00C2FF"/>
  <circle cx="280" cy="190" r="4" fill="#00C2FF"/>
  <circle cx="310" cy="170" r="4" fill="#00C2FF"/>
  <circle cx="340" cy="180" r="4" fill="#00C2FF"/>
  <circle cx="370" cy="150" r="4" fill="#00C2FF"/>
  
  <!-- Binary code background -->
  <text x="50" y="50" fill="#FFFFFF" fill-opacity="0.05" font-family="monospace" font-size="10">01000110 01101001 01101110 01100001 01101110</text>
  <text x="50" y="70" fill="#FFFFFF" fill-opacity="0.05" font-family="monospace" font-size="10">01000001 01001001 00100000 01000110 01110010</text>
  <text x="50" y="90" fill="#FFFFFF" fill-opacity="0.05" font-family="monospace" font-size="10">01000100 01100001 01110100 01100001 00100000</text>
  <text x="50" y="320" fill="#FFFFFF" fill-opacity="0.05" font-family="monospace" font-size="10">01000110 01110010 01100001 01110101 01100100</text>
  <text x="50" y="340" fill="#FFFFFF" fill-opacity="0.05" font-family="monospace" font-size="10">01000001 01101110 01100001 01101100 01111001</text>
  <text x="50" y="360" fill="#FFFFFF" fill-opacity="0.05" font-family="monospace" font-size="10">01000010 01100001 01101110 01101011 01101001</text>
  
  <!-- Connection lines -->
  <line x1="250" y1="150" x2="350" y2="250" stroke="#0066FF" stroke-width="1" stroke-opacity="0.3"/>
  <line x1="350" y1="150" x2="250" y2="250" stroke="#0066FF" stroke-width="1" stroke-opacity="0.3"/>
  
  <!-- Nodes -->
  <circle cx="250" cy="150" r="5" fill="#0066FF"/>
  <circle cx="350" cy="150" r="5" fill="#0066FF"/>
  <circle cx="250" cy="250" r="5" fill="#0066FF"/>
  <circle cx="350" cy="250" r="5" fill="#0066FF"/>
  
  <!-- Text -->
  <text x="300" y="330" fill="#FFFFFF" text-anchor="middle" font-family="Arial" font-size="24" font-weight="bold">Financial Services</text>
</svg>
