<svg width="600" height="400" viewBox="0 0 600 400" fill="none" xmlns="http://www.w3.org/2000/svg">
  <rect width="600" height="400" fill="#121A29"/>
  <path d="M300 100C355.228 100 400 144.772 400 200C400 255.228 355.228 300 300 300C244.772 300 200 255.228 200 200C200 144.772 244.772 100 300 100Z" fill="#0066FF" fill-opacity="0.1"/>
  <path d="M300 120C344.183 120 380 155.817 380 200C380 244.183 344.183 280 300 280C255.817 280 220 244.183 220 200C220 155.817 255.817 120 300 120Z" stroke="#0066FF" stroke-width="2" stroke-dasharray="4 4"/>
  
  <!-- Heartbeat line -->
  <path d="M200 200H240L260 170L280 230L300 170L320 230L340 170L360 200H400" stroke="#FF3366" stroke-width="4"/>
  
  <!-- Medical cross -->
  <path d="M280 120H320V160H360V200H320V240H280V200H240V160H280V120Z" fill="#0066FF" fill-opacity="0.7"/>
  
  <!-- Binary code background -->
  <text x="50" y="50" fill="#FFFFFF" fill-opacity="0.05" font-family="monospace" font-size="10">01001000 01100101 01100001 01101100 01110100</text>
  <text x="50" y="70" fill="#FFFFFF" fill-opacity="0.05" font-family="monospace" font-size="10">01001000 01100101 01100001 01101100 01110100</text>
  <text x="50" y="90" fill="#FFFFFF" fill-opacity="0.05" font-family="monospace" font-size="10">01000001 01001001 00100000 01001101 01100101</text>
  <text x="50" y="320" fill="#FFFFFF" fill-opacity="0.05" font-family="monospace" font-size="10">01000100 01101001 01100001 01100111 01101110</text>
  <text x="50" y="340" fill="#FFFFFF" fill-opacity="0.05" font-family="monospace" font-size="10">01001101 01100101 01100100 01101001 01100011</text>
  <text x="50" y="360" fill="#FFFFFF" fill-opacity="0.05" font-family="monospace" font-size="10">01010000 01100001 01110100 01101001 01100101</text>
  
  <!-- Connection lines -->
  <line x1="250" y1="150" x2="350" y2="250" stroke="#0066FF" stroke-width="1" stroke-opacity="0.3"/>
  <line x1="350" y1="150" x2="250" y2="250" stroke="#0066FF" stroke-width="1" stroke-opacity="0.3"/>
  
  <!-- Nodes -->
  <circle cx="250" cy="150" r="5" fill="#0066FF"/>
  <circle cx="350" cy="150" r="5" fill="#0066FF"/>
  <circle cx="250" cy="250" r="5" fill="#0066FF"/>
  <circle cx="350" cy="250" r="5" fill="#0066FF"/>
  
  <!-- Text -->
  <text x="300" y="330" fill="#FFFFFF" text-anchor="middle" font-family="Arial" font-size="24" font-weight="bold">Healthcare Innovation</text>
</svg>
