<?xml version="1.0" encoding="UTF-8" standalone="no"?>
<svg width="800" height="500" xmlns="http://www.w3.org/2000/svg">
  <rect width="800" height="500" fill="#1a2035"/>
  
  <!-- Classroom/Training Setting -->
  <rect x="100" y="150" width="600" height="300" rx="10" fill="none" stroke="#00a8ff" stroke-width="2"/>
  
  <!-- Screen/Presentation -->
  <rect x="150" y="180" width="300" height="200" fill="#0f1525" stroke="#9c27b0" stroke-width="2"/>
  <text x="300" y="280" font-family="Arial" font-size="24" text-anchor="middle" fill="#ffffff">AI Concepts</text>
  
  <!-- Data visualization on screen -->
  <circle cx="230" cy="240" r="20" fill="none" stroke="#00a8ff" stroke-width="2"/>
  <circle cx="300" cy="240" r="20" fill="none" stroke="#9c27b0" stroke-width="2"/>
  <circle cx="370" cy="240" r="20" fill="none" stroke="#00a8ff" stroke-width="2"/>
  <line x1="230" y1="240" x2="300" y2="240" stroke="#ffffff" stroke-width="1"/>
  <line x1="300" y1="240" x2="370" y2="240" stroke="#ffffff" stroke-width="1"/>
  
  <!-- Students/Audience -->
  <circle cx="520" cy="220" r="15" fill="#00a8ff"/>
  <rect x="505" y="235" width="30" height="40" rx="5" fill="#00a8ff"/>
  
  <circle cx="560" cy="220" r="15" fill="#9c27b0"/>
  <rect x="545" y="235" width="30" height="40" rx="5" fill="#9c27b0"/>
  
  <circle cx="600" cy="220" r="15" fill="#00a8ff"/>
  <rect x="585" y="235" width="30" height="40" rx="5" fill="#00a8ff"/>
  
  <circle cx="520" cy="300" r="15" fill="#9c27b0"/>
  <rect x="505" y="315" width="30" height="40" rx="5" fill="#9c27b0"/>
  
  <circle cx="560" cy="300" r="15" fill="#00a8ff"/>
  <rect x="545" y="315" width="30" height="40" rx="5" fill="#00a8ff"/>
  
  <circle cx="600" cy="300" r="15" fill="#9c27b0"/>
  <rect x="585" y="315" width="30" height="40" rx="5" fill="#9c27b0"/>
  
  <!-- Title -->
  <text x="400" y="80" font-family="Arial" font-size="36" text-anchor="middle" fill="#ffffff">AI Education Overview</text>
  <rect x="250" y="100" width="300" height="4" fill="#00a8ff"/>
</svg>
