<?xml version="1.0" encoding="UTF-8" standalone="no"?>
<svg width="600" height="400" xmlns="http://www.w3.org/2000/svg">
  <defs>
    <linearGradient id="grad1" x1="0%" y1="0%" x2="100%" y2="100%">
      <stop offset="0%" style="stop-color:#0a1929;stop-opacity:1" />
      <stop offset="100%" style="stop-color:#1a365d;stop-opacity:1" />
    </linearGradient>
  </defs>
  <rect width="100%" height="100%" fill="url(#grad1)"/>
  
  <!-- Enterprise visualization -->
  <g stroke="#4285f4" stroke-width="2" fill="none">
    <!-- Central hub -->
    <circle cx="300" cy="200" r="60" opacity="0.8"/>
    
    <!-- Connected nodes -->
    <circle cx="150" cy="120" r="30" opacity="0.6"/>
    <circle cx="450" cy="120" r="30" opacity="0.6"/>
    <circle cx="150" cy="280" r="30" opacity="0.6"/>
    <circle cx="450" cy="280" r="30" opacity="0.6"/>
    
    <!-- Connections -->
    <line x1="300" y1="200" x2="150" y2="120" opacity="0.5"/>
    <line x1="300" y1="200" x2="450" y2="120" opacity="0.5"/>
    <line x1="300" y1="200" x2="150" y2="280" opacity="0.5"/>
    <line x1="300" y1="200" x2="450" y2="280" opacity="0.5"/>
    
    <!-- Secondary connections -->
    <line x1="150" y1="120" x2="450" y2="120" opacity="0.3" stroke-dasharray="5,5"/>
    <line x1="150" y1="280" x2="450" y2="280" opacity="0.3" stroke-dasharray="5,5"/>
    <line x1="150" y1="120" x2="150" y2="280" opacity="0.3" stroke-dasharray="5,5"/>
    <line x1="450" y1="120" x2="450" y2="280" opacity="0.3" stroke-dasharray="5,5"/>
  </g>
  
  <!-- Icons in nodes -->
  <g fill="#00c8ff">
    <circle cx="300" cy="200" r="20" opacity="0.8"/>
    <circle cx="150" cy="120" r="10" opacity="0.8"/>
    <circle cx="450" cy="120" r="10" opacity="0.8"/>
    <circle cx="150" cy="280" r="10" opacity="0.8"/>
    <circle cx="450" cy="280" r="10" opacity="0.8"/>
  </g>
  
  <!-- Digital particles -->
  <g fill="#ffffff" opacity="0.5">
    <circle cx="250" cy="150" r="2" />
    <circle cx="350" cy="150" r="2" />
    <circle cx="250" cy="250" r="2" />
    <circle cx="350" cy="250" r="2" />
    <circle cx="200" cy="200" r="2" />
    <circle cx="400" cy="200" r="2" />
    <circle cx="300" cy="150" r="2" />
    <circle cx="300" cy="250" r="2" />
  </g>
  
  <text x="300" y="50" font-family="Arial, sans-serif" font-size="24" fill="#ffffff" text-anchor="middle">Enterprise AI Consultation Case Study</text>
</svg>
