<?xml version="1.0" encoding="UTF-8"?>
<svg width="800px" height="600px" viewBox="0 0 800 600" version="1.1" xmlns="http://www.w3.org/2000/svg" xmlns:xlink="http://www.w3.org/1999/xlink">
    <title>Enterprise AI Consultation</title>
    <defs>
        <linearGradient x1="0%" y1="0%" x2="100%" y2="100%" id="gradient-blue">
            <stop stop-color="#0066FF" offset="0%"></stop>
            <stop stop-color="#00C2FF" offset="100%"></stop>
        </linearGradient>
        <linearGradient x1="0%" y1="0%" x2="100%" y2="100%" id="gradient-purple">
            <stop stop-color="#7000FF" offset="0%"></stop>
            <stop stop-color="#0066FF" offset="100%"></stop>
        </linearGradient>
        <linearGradient x1="0%" y1="0%" x2="100%" y2="100%" id="gradient-gold">
            <stop stop-color="#FFB800" offset="0%"></stop>
            <stop stop-color="#FF8A00" offset="100%"></stop>
        </linearGradient>
    </defs>
    <g stroke="none" stroke-width="1" fill="none" fill-rule="evenodd">
        <!-- Background Elements -->
        <circle fill="#0A1020" opacity="0.1" cx="400" cy="300" r="250"></circle>
        <circle fill="#0A1020" opacity="0.2" cx="400" cy="300" r="200"></circle>
        
        <!-- Connection Lines -->
        <path d="M300,250 L500,250 L500,350 L300,350 Z" stroke="url(#gradient-blue)" stroke-width="2" opacity="0.6"></path>
        <path d="M250,200 L550,200 L550,400 L250,400 Z" stroke="url(#gradient-blue)" stroke-width="2" opacity="0.4"></path>
        <path d="M200,150 L600,150 L600,450 L200,450 Z" stroke="url(#gradient-blue)" stroke-width="2" opacity="0.2"></path>
        
        <!-- Data Flow Lines -->
        <path d="M300,250 L350,300 L400,250 L450,300 L500,250" stroke="url(#gradient-purple)" stroke-width="3" opacity="0.8"></path>
        <path d="M300,350 L350,300 L400,350 L450,300 L500,350" stroke="url(#gradient-purple)" stroke-width="3" opacity="0.8"></path>
        
        <!-- Central Node -->
        <circle fill="url(#gradient-blue)" cx="400" cy="300" r="50"></circle>
        <circle fill="#0A1020" cx="400" cy="300" r="40"></circle>
        <circle fill="url(#gradient-blue)" cx="400" cy="300" r="30"></circle>
        <circle fill="#0A1020" cx="400" cy="300" r="20"></circle>
        <circle fill="url(#gradient-blue)" cx="400" cy="300" r="10"></circle>
        
        <!-- Corner Nodes -->
        <circle fill="url(#gradient-purple)" cx="300" cy="250" r="20"></circle>
        <circle fill="url(#gradient-purple)" cx="500" cy="250" r="20"></circle>
        <circle fill="url(#gradient-purple)" cx="300" cy="350" r="20"></circle>
        <circle fill="url(#gradient-purple)" cx="500" cy="350" r="20"></circle>
        
        <!-- Data Points -->
        <circle fill="url(#gradient-gold)" cx="350" cy="300" r="15"></circle>
        <circle fill="url(#gradient-gold)" cx="450" cy="300" r="15"></circle>
        <circle fill="url(#gradient-gold)" cx="400" cy="250" r="15"></circle>
        <circle fill="url(#gradient-gold)" cx="400" cy="350" r="15"></circle>
        
        <!-- Outer Connection Points -->
        <circle fill="#FFFFFF" opacity="0.6" cx="250" cy="200" r="5"></circle>
        <circle fill="#FFFFFF" opacity="0.6" cx="550" cy="200" r="5"></circle>
        <circle fill="#FFFFFF" opacity="0.6" cx="250" cy="400" r="5"></circle>
        <circle fill="#FFFFFF" opacity="0.6" cx="550" cy="400" r="5"></circle>
        <circle fill="#FFFFFF" opacity="0.6" cx="200" cy="150" r="5"></circle>
        <circle fill="#FFFFFF" opacity="0.6" cx="600" cy="150" r="5"></circle>
        <circle fill="#FFFFFF" opacity="0.6" cx="200" cy="450" r="5"></circle>
        <circle fill="#FFFFFF" opacity="0.6" cx="600" cy="450" r="5"></circle>
        
        <!-- Business Icons -->
        <g transform="translate(270, 220)" fill="url(#gradient-gold)">
            <path d="M30,0 L0,15 L0,45 L30,60 L60,45 L60,15 L30,0 Z" opacity="0.8"></path>
            <path d="M30,10 L10,20 L10,40 L30,50 L50,40 L50,20 L30,10 Z" fill="#0A1020"></path>
            <path d="M30,20 L20,25 L20,35 L30,40 L40,35 L40,25 L30,20 Z" fill="url(#gradient-gold)"></path>
        </g>
        
        <g transform="translate(470, 220)" fill="url(#gradient-blue)">
            <path d="M30,0 L0,15 L0,45 L30,60 L60,45 L60,15 L30,0 Z" opacity="0.8"></path>
            <path d="M30,10 L10,20 L10,40 L30,50 L50,40 L50,20 L30,10 Z" fill="#0A1020"></path>
            <path d="M30,20 L20,25 L20,35 L30,40 L40,35 L40,25 L30,20 Z" fill="url(#gradient-blue)"></path>
        </g>
        
        <g transform="translate(270, 320)" fill="url(#gradient-purple)">
            <path d="M30,0 L0,15 L0,45 L30,60 L60,45 L60,15 L30,0 Z" opacity="0.8"></path>
            <path d="M30,10 L10,20 L10,40 L30,50 L50,40 L50,20 L30,10 Z" fill="#0A1020"></path>
            <path d="M30,20 L20,25 L20,35 L30,40 L40,35 L40,25 L30,20 Z" fill="url(#gradient-purple)"></path>
        </g>
        
        <g transform="translate(470, 320)" fill="url(#gradient-gold)">
            <path d="M30,0 L0,15 L0,45 L30,60 L60,45 L60,15 L30,0 Z" opacity="0.8"></path>
            <path d="M30,10 L10,20 L10,40 L30,50 L50,40 L50,20 L30,10 Z" fill="#0A1020"></path>
            <path d="M30,20 L20,25 L20,35 L30,40 L40,35 L40,25 L30,20 Z" fill="url(#gradient-gold)"></path>
        </g>
        
        <!-- Pulse Animation Elements -->
        <circle fill="url(#gradient-blue)" opacity="0.2" cx="400" cy="300" r="70">
            <animate attributeName="r" values="70;100;70" dur="4s" repeatCount="indefinite" />
            <animate attributeName="opacity" values="0.2;0.1;0.2" dur="4s" repeatCount="indefinite" />
        </circle>
        
        <circle fill="url(#gradient-purple)" opacity="0.1" cx="400" cy="300" r="120">
            <animate attributeName="r" values="120;150;120" dur="6s" repeatCount="indefinite" />
            <animate attributeName="opacity" values="0.1;0.05;0.1" dur="6s" repeatCount="indefinite" />
        </circle>
    </g>
</svg>
