<?xml version="1.0" encoding="UTF-8"?>
<svg width="800" height="600" viewBox="0 0 800 600" fill="none" xmlns="http://www.w3.org/2000/svg">
  <!-- Background with gradient -->
  <rect width="800" height="600" fill="url(#healthcare_gradient)"/>
  
  <!-- Medical cross symbol -->
  <rect x="300" y="200" width="200" height="200" rx="20" fill="#ffffff" opacity="0.8"/>
  <rect x="350" y="150" width="100" height="300" rx="20" fill="#ffffff" opacity="0.8"/>
  
  <!-- Heartbeat line -->
  <path d="M100,400 L200,400 L250,300 L300,500 L350,350 L400,400 L450,400 L500,250 L550,400 L700,400" 
        stroke="#ffffff" stroke-width="8" stroke-linecap="round" stroke-linejoin="round" opacity="0.7"/>
  
  <!-- Medical icons -->
  <circle cx="200" cy="200" r="40" fill="#ffffff" opacity="0.6"/>
  <circle cx="600" cy="200" r="40" fill="#ffffff" opacity="0.6"/>
  <circle cx="200" cy="450" r="40" fill="#ffffff" opacity="0.6"/>
  <circle cx="600" cy="450" r="40" fill="#ffffff" opacity="0.6"/>
  
  <!-- DNA helix suggestion -->
  <path d="M700,100 C650,150 750,200 700,250 C650,300 750,350 700,400" 
        stroke="#ffffff" stroke-width="6" opacity="0.5" stroke-linecap="round"/>
  <path d="M650,100 C700,150 600,200 650,250 C700,300 600,350 650,400" 
        stroke="#ffffff" stroke-width="6" opacity="0.5" stroke-linecap="round"/>
  
  <!-- Gradient definition -->
  <defs>
    <linearGradient id="healthcare_gradient" x1="0" y1="0" x2="800" y2="600" gradientUnits="userSpaceOnUse">
      <stop offset="0" stop-color="#005EB8"/>
      <stop offset="1" stop-color="#0091DA"/>
    </linearGradient>
  </defs>
</svg>
