<svg width="600" height="400" viewBox="0 0 600 400" fill="none" xmlns="http://www.w3.org/2000/svg">
  <!-- Background elements -->
  <circle cx="300" cy="200" r="180" fill="url(#paint0_radial)" opacity="0.1"/>
  <circle cx="300" cy="200" r="150" stroke="#0066FF" stroke-width="1" stroke-dasharray="4 4" opacity="0.5"/>
  
  <!-- Neural network nodes and connections -->
  <!-- Layer 1 -->
  <circle cx="150" cy="120" r="15" fill="#0066FF" opacity="0.7"/>
  <circle cx="150" cy="200" r="15" fill="#0066FF" opacity="0.7"/>
  <circle cx="150" cy="280" r="15" fill="#0066FF" opacity="0.7"/>
  
  <!-- Layer 2 -->
  <circle cx="300" cy="100" r="15" fill="#0066FF" opacity="0.7"/>
  <circle cx="300" cy="160" r="15" fill="#0066FF" opacity="0.7"/>
  <circle cx="300" cy="220" r="15" fill="#0066FF" opacity="0.7"/>
  <circle cx="300" cy="280" r="15" fill="#0066FF" opacity="0.7"/>
  <circle cx="300" cy="340" r="15" fill="#7000FF" opacity="0.7"/>
  
  <!-- Layer 3 -->
  <circle cx="450" cy="150" r="15" fill="#7000FF" opacity="0.7"/>
  <circle cx="450" cy="250" r="15" fill="#7000FF" opacity="0.7"/>
  
  <!-- Connections Layer 1 to Layer 2 -->
  <line x1="165" y1="120" x2="285" y2="100" stroke="#0066FF" stroke-width="2" opacity="0.3"/>
  <line x1="165" y1="120" x2="285" y2="160" stroke="#0066FF" stroke-width="2" opacity="0.3"/>
  <line x1="165" y1="120" x2="285" y2="220" stroke="#0066FF" stroke-width="2" opacity="0.3"/>
  
  <line x1="165" y1="200" x2="285" y2="100" stroke="#0066FF" stroke-width="2" opacity="0.3"/>
  <line x1="165" y1="200" x2="285" y2="160" stroke="#0066FF" stroke-width="2" opacity="0.3"/>
  <line x1="165" y1="200" x2="285" y2="220" stroke="#0066FF" stroke-width="2" opacity="0.3"/>
  <line x1="165" y1="200" x2="285" y2="280" stroke="#0066FF" stroke-width="2" opacity="0.3"/>
  
  <line x1="165" y1="280" x2="285" y2="160" stroke="#0066FF" stroke-width="2" opacity="0.3"/>
  <line x1="165" y1="280" x2="285" y2="220" stroke="#0066FF" stroke-width="2" opacity="0.3"/>
  <line x1="165" y1="280" x2="285" y2="280" stroke="#0066FF" stroke-width="2" opacity="0.3"/>
  <line x1="165" y1="280" x2="285" y2="340" stroke="#0066FF" stroke-width="2" opacity="0.3"/>
  
  <!-- Connections Layer 2 to Layer 3 -->
  <line x1="315" y1="100" x2="435" y2="150" stroke="#7000FF" stroke-width="2" opacity="0.3"/>
  <line x1="315" y1="160" x2="435" y2="150" stroke="#7000FF" stroke-width="2" opacity="0.3"/>
  <line x1="315" y1="220" x2="435" y2="150" stroke="#7000FF" stroke-width="2" opacity="0.3"/>
  <line x1="315" y1="220" x2="435" y2="250" stroke="#7000FF" stroke-width="2" opacity="0.3"/>
  <line x1="315" y1="280" x2="435" y2="250" stroke="#7000FF" stroke-width="2" opacity="0.3"/>
  <line x1="315" y1="340" x2="435" y2="250" stroke="#7000FF" stroke-width="2" opacity="0.3"/>
  
  <!-- Animated data particles -->
  <circle cx="200" cy="130" r="3" fill="#00C2FF">
    <animate attributeName="cx" from="165" to="285" dur="3s" begin="0s" repeatCount="indefinite"/>
    <animate attributeName="cy" from="120" to="160" dur="3s" begin="0s" repeatCount="indefinite"/>
  </circle>
  
  <circle cx="250" cy="180" r="3" fill="#00C2FF">
    <animate attributeName="cx" from="165" to="285" dur="3s" begin="0.5s" repeatCount="indefinite"/>
    <animate attributeName="cy" from="200" to="220" dur="3s" begin="0.5s" repeatCount="indefinite"/>
  </circle>
  
  <circle cx="350" cy="200" r="3" fill="#7000FF">
    <animate attributeName="cx" from="315" to="435" dur="3s" begin="1s" repeatCount="indefinite"/>
    <animate attributeName="cy" from="220" to="250" dur="3s" begin="1s" repeatCount="indefinite"/>
  </circle>
  
  <!-- Brain outline -->
  <path d="M300 50C350 50 390 70 420 100C450 130 470 170 470 220C470 270 450 310 420 340C390 370 350 390 300 390C250 390 210 370 180 340C150 310 130 270 130 220C130 170 150 130 180 100C210 70 250 50 300 50Z" stroke="#0066FF" stroke-width="2" fill="none" opacity="0.2"/>
  
  <!-- Decorative elements -->
  <circle cx="200" cy="70" r="5" fill="#00C2FF" opacity="0.7"/>
  <circle cx="400" cy="70" r="5" fill="#00C2FF" opacity="0.7"/>
  <circle cx="500" cy="200" r="5" fill="#7000FF" opacity="0.7"/>
  <circle cx="400" cy="330" r="5" fill="#7000FF" opacity="0.7"/>
  <circle cx="200" cy="330" r="5" fill="#00C2FF" opacity="0.7"/>
  <circle cx="100" cy="200" r="5" fill="#0066FF" opacity="0.7"/>
  
  <!-- Gradient definitions -->
  <defs>
    <radialGradient id="paint0_radial" cx="0" cy="0" r="1" gradientUnits="userSpaceOnUse" gradientTransform="translate(300 200) rotate(90) scale(180)">
      <stop stop-color="#0066FF"/>
      <stop offset="1" stop-color="#7000FF" stop-opacity="0"/>
    </radialGradient>
  </defs>
</svg>
