<?xml version="1.0" encoding="UTF-8" standalone="no"?>
<svg width="800" height="600" xmlns="http://www.w3.org/2000/svg">
  <rect width="800" height="600" fill="#1a2035"/>
  <text x="400" y="100" font-family="Arial" font-size="40" text-anchor="middle" fill="#ffffff">AI Custom Solutions</text>
  <rect x="250" y="120" width="300" height="5" fill="#00a8ff"/>
  
  <!-- Abstract representation of custom AI solutions -->
  <rect x="200" y="200" width="400" height="300" rx="20" fill="none" stroke="#00a8ff" stroke-width="3"/>
  
  <!-- Gear representing automation -->
  <circle cx="300" cy="300" r="60" fill="none" stroke="#9c27b0" stroke-width="3"/>
  <circle cx="300" cy="300" r="40" fill="none" stroke="#9c27b0" stroke-width="2"/>
  <path d="M300,240 L300,260 M300,340 L300,360 M240,300 L260,300 M340,300 L360,300 
           M255,255 L270,270 M330,330 L345,345 M255,345 L270,330 M330,270 L345,255" 
        stroke="#9c27b0" stroke-width="4"/>
  
  <!-- Data visualization elements -->
  <rect x="400" y="240" width="150" height="20" rx="5" fill="#00a8ff"/>
  <rect x="400" y="270" width="120" height="20" rx="5" fill="#00a8ff"/>
  <rect x="400" y="300" width="180" height="20" rx="5" fill="#00a8ff"/>
  <rect x="400" y="330" width="100" height="20" rx="5" fill="#00a8ff"/>
  <rect x="400" y="360" width="140" height="20" rx="5" fill="#00a8ff"/>
  
  <!-- Connection lines -->
  <line x1="360" y1="300" x2="390" y2="300" stroke="#ffffff" stroke-width="2"/>
  <line x1="390" y1="250" x2="390" y2="370" stroke="#ffffff" stroke-width="2"/>
  <line x1="390" y1="250" x2="400" y2="250" stroke="#ffffff" stroke-width="2"/>
  <line x1="390" y1="280" x2="400" y2="280" stroke="#ffffff" stroke-width="2"/>
  <line x1="390" y1="310" x2="400" y2="310" stroke="#ffffff" stroke-width="2"/>
  <line x1="390" y1="340" x2="400" y2="340" stroke="#ffffff" stroke-width="2"/>
  <line x1="390" y1="370" x2="400" y2="370" stroke="#ffffff" stroke-width="2"/>
</svg>
