<?xml version="1.0" encoding="UTF-8" standalone="no"?>
<svg width="800" height="600" xmlns="http://www.w3.org/2000/svg">
  <rect width="800" height="600" fill="#1a2035"/>
  <text x="400" y="100" font-family="Arial" font-size="40" text-anchor="middle" fill="#ffffff">AI Education & Training</text>
  <rect x="250" y="120" width="300" height="5" fill="#00a8ff"/>
  
  <!-- Abstract representation of education -->
  <circle cx="400" cy="300" r="120" fill="none" stroke="#00a8ff" stroke-width="3"/>
  <circle cx="400" cy="300" r="80" fill="none" stroke="#9c27b0" stroke-width="2"/>
  
  <!-- Brain nodes -->
  <circle cx="350" cy="250" r="15" fill="#00a8ff"/>
  <circle cx="420" cy="220" r="12" fill="#9c27b0"/>
  <circle cx="460" cy="280" r="10" fill="#00a8ff"/>
  <circle cx="390" cy="330" r="14" fill="#9c27b0"/>
  <circle cx="330" cy="310" r="11" fill="#00a8ff"/>
  
  <!-- Connection lines -->
  <line x1="350" y1="250" x2="420" y2="220" stroke="#ffffff" stroke-width="2"/>
  <line x1="420" y1="220" x2="460" y2="280" stroke="#ffffff" stroke-width="2"/>
  <line x1="460" y1="280" x2="390" y2="330" stroke="#ffffff" stroke-width="2"/>
  <line x1="390" y1="330" x2="330" y2="310" stroke="#ffffff" stroke-width="2"/>
  <line x1="330" y1="310" x2="350" y2="250" stroke="#ffffff" stroke-width="2"/>
  
  <!-- People silhouettes -->
  <rect x="320" y="450" width="30" height="60" rx="10" fill="#00a8ff"/>
  <circle cx="335" cy="430" r="15" fill="#00a8ff"/>
  
  <rect x="370" y="450" width="30" height="60" rx="10" fill="#9c27b0"/>
  <circle cx="385" cy="430" r="15" fill="#9c27b0"/>
  
  <rect x="420" y="450" width="30" height="60" rx="10" fill="#00a8ff"/>
  <circle cx="435" cy="430" r="15" fill="#00a8ff"/>
</svg>
