<?xml version="1.0" encoding="UTF-8"?>
<svg width="800" height="600" viewBox="0 0 800 600" fill="none" xmlns="http://www.w3.org/2000/svg">
  <!-- Background with gradient -->
  <rect width="800" height="600" fill="url(#energy_gradient)"/>
  
  <!-- Power lines and towers -->
  <path d="M100,500 L100,350 L150,350 L150,500" stroke="#ffffff" stroke-width="8" opacity="0.8"/>
  <path d="M300,500 L300,350 L350,350 L350,500" stroke="#ffffff" stroke-width="8" opacity="0.8"/>
  <path d="M500,500 L500,350 L550,350 L550,500" stroke="#ffffff" stroke-width="8" opacity="0.8"/>
  <path d="M700,500 L700,350 L750,350 L750,500" stroke="#ffffff" stroke-width="8" opacity="0.8"/>
  
  <path d="M100,350 L750,350" stroke="#ffffff" stroke-width="4" opacity="0.7"/>
  <path d="M100,330 L750,330" stroke="#ffffff" stroke-width="4" opacity="0.7"/>
  <path d="M100,370 L750,370" stroke="#ffffff" stroke-width="4" opacity="0.7"/>
  
  <!-- Wind turbines -->
  <path d="M200,300 L200,500" stroke="#ffffff" stroke-width="6" opacity="0.8"/>
  <circle cx="200" cy="300" r="10" fill="#ffffff" opacity="0.9"/>
  <path d="M200,300 L150,220 M200,300 L250,220 M200,300 L280,350" 
        stroke="#ffffff" stroke-width="8" stroke-linecap="round" opacity="0.7"/>
  
  <path d="M600,320 L600,500" stroke="#ffffff" stroke-width="6" opacity="0.8"/>
  <circle cx="600" cy="320" r="10" fill="#ffffff" opacity="0.9"/>
  <path d="M600,320 L550,240 M600,320 L650,240 M600,320 L680,370" 
        stroke="#ffffff" stroke-width="8" stroke-linecap="round" opacity="0.7"/>
  
  <!-- Solar panels -->
  <rect x="400" y="450" width="80" height="50" fill="#ffffff" opacity="0.7"/>
  <line x1="400" y1="460" x2="480" y2="460" stroke="#ffffff" stroke-width="1" opacity="0.9"/>
  <line x1="400" y1="470" x2="480" y2="470" stroke="#ffffff" stroke-width="1" opacity="0.9"/>
  <line x1="400" y1="480" x2="480" y2="480" stroke="#ffffff" stroke-width="1" opacity="0.9"/>
  <line x1="400" y1="490" x2="480" y2="490" stroke="#ffffff" stroke-width="1" opacity="0.9"/>
  <line x1="420" y1="450" x2="420" y2="500" stroke="#ffffff" stroke-width="1" opacity="0.9"/>
  <line x1="440" y1="450" x2="440" y2="500" stroke="#ffffff" stroke-width="1" opacity="0.9"/>
  <line x1="460" y1="450" x2="460" y2="500" stroke="#ffffff" stroke-width="1" opacity="0.9"/>
  
  <!-- Lightning bolt -->
  <path d="M400,100 L350,200 L400,200 L350,300" stroke="#ffffff" stroke-width="15" stroke-linecap="round" stroke-linejoin="round" opacity="0.9"/>
  
  <!-- Power plant -->
  <rect x="100" y="400" width="60" height="100" fill="#ffffff" opacity="0.6"/>
  <rect x="120" y="350" width="20" height="50" fill="#ffffff" opacity="0.7"/>
  <circle cx="130" cy="330" r="20" fill="#ffffff" opacity="0.4"/>
  <circle cx="130" cy="310" r="15" fill="#ffffff" opacity="0.3"/>
  <circle cx="130" cy="290" r="10" fill="#ffffff" opacity="0.2"/>
  
  <!-- Oil derrick -->
  <path d="M700,400 L650,300 L750,300 Z" fill="#ffffff" opacity="0.7"/>
  <rect x="695" y="300" width="10" height="100" fill="#ffffff" opacity="0.8"/>
  <path d="M680,340 L720,340 M680,360 L720,360 M680,380 L720,380" 
        stroke="#ffffff" stroke-width="3" opacity="0.8"/>
  
  <!-- Nuclear symbol -->
  <circle cx="500" cy="200" r="50" fill="none" stroke="#ffffff" stroke-width="8" opacity="0.7"/>
  <circle cx="500" cy="200" r="15" fill="#ffffff" opacity="0.9"/>
  <path d="M500,200 L550,150 M500,200 L475,250 M500,200 L450,175" 
        stroke="#ffffff" stroke-width="12" stroke-linecap="round" opacity="0.7"/>
  
  <!-- Gradient definition -->
  <defs>
    <linearGradient id="energy_gradient" x1="0" y1="0" x2="800" y2="600" gradientUnits="userSpaceOnUse">
      <stop offset="0" stop-color="#1D976C"/>
      <stop offset="1" stop-color="#93F9B9"/>
    </linearGradient>
  </defs>
</svg>
