<svg width="200" height="60" viewBox="0 0 200 60" fill="none" xmlns="http://www.w3.org/2000/svg">
  <!-- Logo background - subtle glow effect -->
  <ellipse cx="30" cy="30" rx="25" ry="25" fill="url(#paint0_radial)" fill-opacity="0.3"/>
  
  <!-- B letter stylized with circuit elements -->
  <path d="M15 10H35C40.5228 10 45 14.4772 45 20C45 25.5228 40.5228 30 35 30H15V10Z" fill="#0066FF" fill-opacity="0.2"/>
  <path d="M15 30H40C45.5228 30 50 34.4772 50 40C50 45.5228 45.5228 50 40 50H15V30Z" fill="#0066FF" fill-opacity="0.2"/>
  <path d="M15 10V50" stroke="white" stroke-width="3"/>
  <path d="M15 10H35C40.5228 10 45 14.4772 45 20C45 25.5228 40.5228 30 35 30H15" stroke="white" stroke-width="3"/>
  <path d="M15 30H40C45.5228 30 50 34.4772 50 40C50 45.5228 45.5228 50 40 50H15" stroke="white" stroke-width="3"/>
  
  <!-- Circuit nodes -->
  <circle cx="35" cy="20" r="2" fill="white"/>
  <circle cx="40" cy="40" r="2" fill="white"/>
  <circle cx="15" cy="10" r="2" fill="white"/>
  <circle cx="15" cy="30" r="2" fill="white"/>
  <circle cx="15" cy="50" r="2" fill="white"/>
  
  <!-- Company name -->
  <text x="60" y="30" font-family="Arial" font-weight="bold" font-size="18" fill="white">BIXING</text>
  <text x="60" y="45" font-family="Arial" font-size="12" fill="white">TECHNOLOGY</text>
  
  <!-- AI-themed decorative elements -->
  <path d="M55 25H58" stroke="white" stroke-opacity="0.5" stroke-width="1"/>
  <path d="M55 35H58" stroke="white" stroke-opacity="0.5" stroke-width="1"/>
  <path d="M145 25H148" stroke="white" stroke-opacity="0.5" stroke-width="1"/>
  <path d="M145 35H148" stroke="white" stroke-opacity="0.5" stroke-width="1"/>
  
  <!-- Gradient definitions -->
  <defs>
    <radialGradient id="paint0_radial" cx="0" cy="0" r="1" gradientUnits="userSpaceOnUse" gradientTransform="translate(30 30) rotate(90) scale(30)">
      <stop stop-color="#0066FF"/>
      <stop offset="1" stop-color="#0066FF" stop-opacity="0"/>
    </radialGradient>
  </defs>
</svg>
