<?xml version="1.0" encoding="UTF-8"?>
<svg width="800" height="600" viewBox="0 0 800 600" fill="none" xmlns="http://www.w3.org/2000/svg">
  <!-- Background with gradient -->
  <rect width="800" height="600" fill="url(#manufacturing_gradient)"/>
  
  <!-- Factory silhouette -->
  <path d="M100,500 L100,350 L200,350 L200,300 L300,300 L300,350 L400,350 L400,250 L500,250 L500,350 L600,350 L600,400 L700,400 L700,500 Z" 
        fill="#ffffff" opacity="0.7"/>
  
  <!-- Smokestacks -->
  <rect x="150" y="250" width="30" height="100" fill="#ffffff" opacity="0.6"/>
  <rect x="350" y="200" width="30" height="150" fill="#ffffff" opacity="0.6"/>
  <rect x="550" y="300" width="30" height="100" fill="#ffffff" opacity="0.6"/>
  
  <!-- Smoke clouds -->
  <circle cx="165" cy="230" r="20" fill="#ffffff" opacity="0.4"/>
  <circle cx="180" cy="210" r="25" fill="#ffffff" opacity="0.3"/>
  <circle cx="150" cy="200" r="15" fill="#ffffff" opacity="0.2"/>
  
  <circle cx="365" cy="180" r="20" fill="#ffffff" opacity="0.4"/>
  <circle cx="380" cy="160" r="25" fill="#ffffff" opacity="0.3"/>
  <circle cx="350" cy="150" r="15" fill="#ffffff" opacity="0.2"/>
  
  <circle cx="565" cy="280" r="20" fill="#ffffff" opacity="0.4"/>
  <circle cx="580" cy="260" r="25" fill="#ffffff" opacity="0.3"/>
  <circle cx="550" cy="250" r="15" fill="#ffffff" opacity="0.2"/>
  
  <!-- Gear icons -->
  <circle cx="200" cy="150" r="50" fill="none" stroke="#ffffff" stroke-width="8" opacity="0.8"/>
  <circle cx="200" cy="150" r="15" fill="#ffffff" opacity="0.8"/>
  <path d="M200,85 L200,100 M235,115 L225,125 M250,150 L235,150 M235,185 L225,175 M200,215 L200,200 M165,185 L175,175 M150,150 L165,150 M165,115 L175,125" 
        stroke="#ffffff" stroke-width="8" stroke-linecap="round" opacity="0.8"/>
  
  <circle cx="600" cy="150" r="40" fill="none" stroke="#ffffff" stroke-width="6" opacity="0.8"/>
  <circle cx="600" cy="150" r="12" fill="#ffffff" opacity="0.8"/>
  <path d="M600,100 L600,110 M630,120 L622,128 M640,150 L630,150 M630,180 L622,172 M600,200 L600,190 M570,180 L578,172 M560,150 L570,150 M570,120 L578,128" 
        stroke="#ffffff" stroke-width="6" stroke-linecap="round" opacity="0.8"/>
  
  <!-- Assembly line -->
  <rect x="150" y="400" width="500" height="20" fill="#ffffff" opacity="0.9"/>
  <rect x="200" y="380" width="30" height="20" fill="#ffffff" opacity="0.6"/>
  <rect x="300" y="380" width="30" height="20" fill="#ffffff" opacity="0.6"/>
  <rect x="400" y="380" width="30" height="20" fill="#ffffff" opacity="0.6"/>
  <rect x="500" y="380" width="30" height="20" fill="#ffffff" opacity="0.6"/>
  <rect x="600" y="380" width="30" height="20" fill="#ffffff" opacity="0.6"/>
  
  <!-- Gradient definition -->
  <defs>
    <linearGradient id="manufacturing_gradient" x1="0" y1="0" x2="800" y2="600" gradientUnits="userSpaceOnUse">
      <stop offset="0" stop-color="#3A6073"/>
      <stop offset="1" stop-color="#16222A"/>
    </linearGradient>
  </defs>
</svg>
