<svg width="500" height="500" viewBox="0 0 500 500" xmlns="http://www.w3.org/2000/svg">
  <defs>
    <pattern id="customPattern" x="0" y="0" width="100" height="100" patternUnits="userSpaceOnUse">
      <circle cx="10" cy="10" r="8" fill="none" stroke="#0066FF" stroke-width="1" opacity="0.3"/>
      <circle cx="50" cy="10" r="8" fill="none" stroke="#0066FF" stroke-width="1" opacity="0.3"/>
      <circle cx="90" cy="10" r="8" fill="none" stroke="#0066FF" stroke-width="1" opacity="0.3"/>
      <circle cx="10" cy="50" r="8" fill="none" stroke="#0066FF" stroke-width="1" opacity="0.3"/>
      <circle cx="50" cy="50" r="8" fill="none" stroke="#0066FF" stroke-width="1" opacity="0.3"/>
      <circle cx="90" cy="50" r="8" fill="none" stroke="#0066FF" stroke-width="1" opacity="0.3"/>
      <circle cx="10" cy="90" r="8" fill="none" stroke="#0066FF" stroke-width="1" opacity="0.3"/>
      <circle cx="50" cy="90" r="8" fill="none" stroke="#0066FF" stroke-width="1" opacity="0.3"/>
      <circle cx="90" cy="90" r="8" fill="none" stroke="#0066FF" stroke-width="1" opacity="0.3"/>
      <path d="M10 10L50 10L90 10L90 50L90 90L50 90L10 90L10 50Z" fill="none" stroke="#0066FF" stroke-width="1" opacity="0.2"/>
      <path d="M50 10L50 90" fill="none" stroke="#0066FF" stroke-width="1" opacity="0.2"/>
      <path d="M10 50L90 50" fill="none" stroke="#0066FF" stroke-width="1" opacity="0.2"/>
      <rect x="45" y="45" width="10" height="10" fill="#0066FF" opacity="0.3"/>
    </pattern>
  </defs>
  <rect width="500" height="500" fill="url(#customPattern)"/>
</svg>
