<svg width="500" height="500" viewBox="0 0 500 500" xmlns="http://www.w3.org/2000/svg">
  <defs>
    <pattern id="enterprisePattern" x="0" y="0" width="100" height="100" patternUnits="userSpaceOnUse">
      <line x1="10" y1="10" x2="90" y2="10" stroke="#0066FF" stroke-width="1" opacity="0.2"/>
      <line x1="10" y1="30" x2="90" y2="30" stroke="#0066FF" stroke-width="1" opacity="0.2"/>
      <line x1="10" y1="50" x2="90" y2="50" stroke="#0066FF" stroke-width="1" opacity="0.2"/>
      <line x1="10" y1="70" x2="90" y2="70" stroke="#0066FF" stroke-width="1" opacity="0.2"/>
      <line x1="10" y1="90" x2="90" y2="90" stroke="#0066FF" stroke-width="1" opacity="0.2"/>
      
      <line x1="10" y1="10" x2="10" y2="90" stroke="#0066FF" stroke-width="1" opacity="0.2"/>
      <line x1="30" y1="10" x2="30" y2="90" stroke="#0066FF" stroke-width="1" opacity="0.2"/>
      <line x1="50" y1="10" x2="50" y2="90" stroke="#0066FF" stroke-width="1" opacity="0.2"/>
      <line x1="70" y1="10" x2="70" y2="90" stroke="#0066FF" stroke-width="1" opacity="0.2"/>
      <line x1="90" y1="10" x2="90" y2="90" stroke="#0066FF" stroke-width="1" opacity="0.2"/>
      
      <circle cx="50" cy="50" r="15" fill="none" stroke="#0066FF" stroke-width="1.5" opacity="0.3"/>
      <circle cx="50" cy="50" r="5" fill="#0066FF" opacity="0.3"/>
      
      <circle cx="10" cy="10" r="2" fill="#0066FF" opacity="0.3"/>
      <circle cx="30" cy="10" r="2" fill="#0066FF" opacity="0.3"/>
      <circle cx="50" cy="10" r="2" fill="#0066FF" opacity="0.3"/>
      <circle cx="70" cy="10" r="2" fill="#0066FF" opacity="0.3"/>
      <circle cx="90" cy="10" r="2" fill="#0066FF" opacity="0.3"/>
      
      <circle cx="10" cy="90" r="2" fill="#0066FF" opacity="0.3"/>
      <circle cx="30" cy="90" r="2" fill="#0066FF" opacity="0.3"/>
      <circle cx="50" cy="90" r="2" fill="#0066FF" opacity="0.3"/>
      <circle cx="70" cy="90" r="2" fill="#0066FF" opacity="0.3"/>
      <circle cx="90" cy="90" r="2" fill="#0066FF" opacity="0.3"/>
    </pattern>
  </defs>
  <rect width="500" height="500" fill="url(#enterprisePattern)"/>
</svg>
