<svg width="120" height="40" viewBox="0 0 120 40" fill="none" xmlns="http://www.w3.org/2000/svg">
  <rect width="120" height="40" rx="4" fill="none"/>
  <path d="M20 10H28C34.6274 10 40 15.3726 40 22V22C40 28.6274 34.6274 34 28 34H20V10Z" fill="#00C2FF"/>
  <path d="M26 16V28H28C31.3137 28 34 25.3137 34 22V22C34 18.6863 31.3137 16 28 16H26Z" fill="white"/>
  <path d="M44 10H52C58.6274 10 64 15.3726 64 22V22C64 28.6274 58.6274 34 52 34H44V10Z" fill="#00C2FF"/>
  <path d="M50 16V28H52C55.3137 28 58 25.3137 58 22V22C58 18.6863 55.3137 16 52 16H50Z" fill="white"/>
  <path d="M68 10H84C90.6274 10 96 15.3726 96 22V22C96 28.6274 90.6274 34 84 34H68V10Z" fill="#00C2FF"/>
  <path d="M74 16V28H84C87.3137 28 90 25.3137 90 22V22C90 18.6863 87.3137 16 84 16H74Z" fill="white"/>
  <path d="M100 10H108C114.627 10 120 15.3726 120 22V22C120 28.6274 114.627 34 108 34H100V10Z" fill="#00C2FF"/>
  <path d="M106 16V28H108C111.314 28 114 25.3137 114 22V22C114 18.6863 111.314 16 108 16H106Z" fill="white"/>
</svg>
