<?xml version="1.0" encoding="UTF-8" standalone="no"?>
<svg width="800" height="500" xmlns="http://www.w3.org/2000/svg">
  <rect width="800" height="500" fill="#1a2035"/>
  
  <!-- Title -->
  <text x="400" y="80" font-family="Arial" font-size="36" text-anchor="middle" fill="#ffffff">Custom AI Development</text>
  <rect x="250" y="100" width="300" height="4" fill="#00a8ff"/>
  
  <!-- Central processing unit representation -->
  <rect x="300" y="150" width="200" height="200" rx="10" fill="none" stroke="#00a8ff" stroke-width="3"/>
  
  <!-- CPU components -->
  <rect x="320" y="170" width="70" height="70" fill="#0f1525" stroke="#9c27b0" stroke-width="2"/>
  <rect x="410" y="170" width="70" height="70" fill="#0f1525" stroke="#9c27b0" stroke-width="2"/>
  <rect x="320" y="260" width="70" height="70" fill="#0f1525" stroke="#9c27b0" stroke-width="2"/>
  <rect x="410" y="260" width="70" height="70" fill="#0f1525" stroke="#9c27b0" stroke-width="2"/>
  
  <!-- Connection lines -->
  <line x1="355" y1="240" x2="355" y2="260" stroke="#ffffff" stroke-width="2"/>
  <line x1="445" y1="240" x2="445" y2="260" stroke="#ffffff" stroke-width="2"/>
  <line x1="390" y1="205" x2="410" y2="205" stroke="#ffffff" stroke-width="2"/>
  <line x1="390" y1="295" x2="410" y2="295" stroke="#ffffff" stroke-width="2"/>
  
  <!-- Input data streams -->
  <path d="M200,200 C220,200 240,180 260,180 L300,180" stroke="#00a8ff" stroke-width="2" fill="none"/>
  <path d="M200,220 C220,220 240,200 260,200 L300,200" stroke="#00a8ff" stroke-width="2" fill="none"/>
  <path d="M200,240 C220,240 240,220 260,220 L300,220" stroke="#00a8ff" stroke-width="2" fill="none"/>
  
  <!-- Output data streams -->
  <path d="M500,180 L540,180 C560,180 580,200 600,200" stroke="#9c27b0" stroke-width="2" fill="none"/>
  <path d="M500,200 L540,200 C560,200 580,220 600,220" stroke="#9c27b0" stroke-width="2" fill="none"/>
  <path d="M500,220 L540,220 C560,220 580,240 600,240" stroke="#9c27b0" stroke-width="2" fill="none"/>
  
  <!-- Solution labels -->
  <text x="150" y="200" font-family="Arial" font-size="14" text-anchor="end" fill="#ffffff">Data Input</text>
  <text x="650" y="220" font-family="Arial" font-size="14" text-anchor="start" fill="#ffffff">AI Solutions</text>
  
  <!-- Business icons -->
  <circle cx="200" cy="350" r="30" fill="none" stroke="#00a8ff" stroke-width="2"/>
  <text x="200" y="355" font-family="Arial" font-size="12" text-anchor="middle" fill="#ffffff">Business</text>
  
  <circle cx="300" cy="400" r="30" fill="none" stroke="#00a8ff" stroke-width="2"/>
  <text x="300" y="405" font-family="Arial" font-size="12" text-anchor="middle" fill="#ffffff">Challenge</text>
  
  <circle cx="400" cy="400" r="30" fill="none" stroke="#9c27b0" stroke-width="2"/>
  <text x="400" y="405" font-family="Arial" font-size="12" text-anchor="middle" fill="#ffffff">Custom AI</text>
  
  <circle cx="500" cy="400" r="30" fill="none" stroke="#9c27b0" stroke-width="2"/>
  <text x="500" y="405" font-family="Arial" font-size="12" text-anchor="middle" fill="#ffffff">Solution</text>
  
  <circle cx="600" cy="350" r="30" fill="none" stroke="#9c27b0" stroke-width="2"/>
  <text x="600" y="355" font-family="Arial" font-size="12" text-anchor="middle" fill="#ffffff">Results</text>
  
  <!-- Connection arrows -->
  <line x1="230" y1="350" x2="270" y2="380" stroke="#ffffff" stroke-width="2"/>
  <line x1="330" y1="400" x2="370" y2="400" stroke="#ffffff" stroke-width="2"/>
  <line x1="430" y1="400" x2="470" y2="400" stroke="#ffffff" stroke-width="2"/>
  <line x1="530" y1="380" x2="570" y2="350" stroke="#ffffff" stroke-width="2"/>
</svg>
