<?xml version="1.0" encoding="UTF-8"?>
<svg xmlns="http://www.w3.org/2000/svg" viewBox="0 0 800 600" width="800" height="600">
  <!-- Background with gradient -->
  <defs>
    <linearGradient id="bg-gradient" x1="0%" y1="0%" x2="100%" y2="100%">
      <stop offset="0%" stop-color="#3b82f6" stop-opacity="0.2"/>
      <stop offset="100%" stop-color="#10b981" stop-opacity="0.2"/>
    </linearGradient>
    <linearGradient id="chart-gradient" x1="0%" y1="0%" x2="0%" y2="100%">
      <stop offset="0%" stop-color="#3b82f6"/>
      <stop offset="100%" stop-color="#10b981"/>
    </linearGradient>
    <filter id="shadow" x="-20%" y="-20%" width="140%" height="140%">
      <feGaussianBlur in="SourceAlpha" stdDeviation="5"/>
      <feOffset dx="2" dy="2" result="offsetblur"/>
      <feComponentTransfer>
        <feFuncA type="linear" slope="0.2"/>
      </feComponentTransfer>
      <feMerge>
        <feMergeNode/>
        <feMergeNode in="SourceGraphic"/>
      </feMerge>
    </filter>
  </defs>
  
  <!-- Background -->
  <rect width="800" height="600" fill="url(#bg-gradient)"/>
  
  <!-- Abstract data patterns -->
  <g opacity="0.3">
    <circle cx="100" cy="100" r="50" fill="#3b82f6"/>
    <circle cx="700" cy="500" r="70" fill="#10b981"/>
    <circle cx="200" cy="450" r="40" fill="#8b5cf6"/>
    <circle cx="600" cy="150" r="60" fill="#f59e0b"/>
  </g>
  
  <!-- Grid lines -->
  <g stroke="#6b7280" stroke-width="1" opacity="0.2">
    <line x1="100" y1="50" x2="700" y2="50"/>
    <line x1="100" y1="150" x2="700" y2="150"/>
    <line x1="100" y1="250" x2="700" y2="250"/>
    <line x1="100" y1="350" x2="700" y2="350"/>
    <line x1="100" y1="450" x2="700" y2="450"/>
    <line x1="100" y1="50" x2="100" y2="450"/>
    <line x1="220" y1="50" x2="220" y2="450"/>
    <line x1="340" y1="50" x2="340" y2="450"/>
    <line x1="460" y1="50" x2="460" y2="450"/>
    <line x1="580" y1="50" x2="580" y2="450"/>
    <line x1="700" y1="50" x2="700" y2="450"/>
  </g>
  
  <!-- Bar chart -->
  <g filter="url(#shadow)">
    <rect x="130" y="250" width="60" height="200" fill="url(#chart-gradient)" rx="5"/>
    <rect x="250" y="200" width="60" height="250" fill="url(#chart-gradient)" rx="5"/>
    <rect x="370" y="150" width="60" height="300" fill="url(#chart-gradient)" rx="5"/>
    <rect x="490" y="180" width="60" height="270" fill="url(#chart-gradient)" rx="5"/>
    <rect x="610" y="220" width="60" height="230" fill="url(#chart-gradient)" rx="5"/>
  </g>
  
  <!-- Line chart -->
  <g fill="none" stroke="#8b5cf6" stroke-width="4" filter="url(#shadow)">
    <path d="M130 200 L250 220 L370 180 L490 150 L610 190" stroke-linecap="round" stroke-linejoin="round"/>
    <circle cx="130" cy="200" r="8" fill="white" stroke="#8b5cf6" stroke-width="3"/>
    <circle cx="250" cy="220" r="8" fill="white" stroke="#8b5cf6" stroke-width="3"/>
    <circle cx="370" cy="180" r="8" fill="white" stroke="#8b5cf6" stroke-width="3"/>
    <circle cx="490" cy="150" r="8" fill="white" stroke="#8b5cf6" stroke-width="3"/>
    <circle cx="610" cy="190" r="8" fill="white" stroke="#8b5cf6" stroke-width="3"/>
  </g>
  
  <!-- Scatter plot points -->
  <g filter="url(#shadow)">
    <circle cx="150" cy="120" r="6" fill="#ef4444"/>
    <circle cx="180" cy="90" r="6" fill="#ef4444"/>
    <circle cx="210" cy="130" r="6" fill="#ef4444"/>
    <circle cx="240" cy="100" r="6" fill="#ef4444"/>
    <circle cx="270" cy="110" r="6" fill="#ef4444"/>
    <circle cx="300" cy="80" r="6" fill="#ef4444"/>
    <circle cx="330" cy="120" r="6" fill="#ef4444"/>
    <circle cx="360" cy="90" r="6" fill="#ef4444"/>
    <circle cx="390" cy="110" r="6" fill="#ef4444"/>
    <circle cx="420" cy="100" r="6" fill="#ef4444"/>
    <circle cx="450" cy="120" r="6" fill="#ef4444"/>
    <circle cx="480" cy="90" r="6" fill="#ef4444"/>
    <circle cx="510" cy="110" r="6" fill="#ef4444"/>
    <circle cx="540" cy="80" r="6" fill="#ef4444"/>
    <circle cx="570" cy="100" r="6" fill="#ef4444"/>
    <circle cx="600" cy="120" r="6" fill="#ef4444"/>
    <circle cx="630" cy="90" r="6" fill="#ef4444"/>
    <circle cx="660" cy="110" r="6" fill="#ef4444"/>
  </g>
  
  <!-- Data icons -->
  <g transform="translate(400, 520)" filter="url(#shadow)">
    <circle cx="0" cy="0" r="40" fill="white" opacity="0.9"/>
    <g transform="scale(0.07)">
      <!-- Database icon -->
      <path d="M0 -200 C110 -200 110 -200 220 -200 C220 -150 220 -100 220 0 C220 50 220 100 220 150 C110 150 110 150 0 150 C0 100 0 50 0 0 C0 -100 0 -150 0 -200 Z" fill="#3b82f6"/>
      <ellipse cx="110" cy="-200" rx="110" ry="30" fill="#3b82f6"/>
      <ellipse cx="110" cy="0" rx="110" ry="30" fill="#3b82f6" opacity="0.7"/>
      <ellipse cx="110" cy="150" rx="110" ry="30" fill="#3b82f6"/>
    </g>
  </g>
  
  <g transform="translate(500, 520)" filter="url(#shadow)">
    <circle cx="0" cy="0" r="40" fill="white" opacity="0.9"/>
    <g transform="scale(0.08)">
      <!-- Analytics icon -->
      <rect x="-150" y="-100" width="50" height="200" fill="#10b981"/>
      <rect x="-50" y="-150" width="50" height="250" fill="#10b981"/>
      <rect x="50" y="-200" width="50" height="300" fill="#10b981"/>
      <rect x="150" y="-120" width="50" height="220" fill="#10b981"/>
    </g>
  </g>
  
  <g transform="translate(300, 520)" filter="url(#shadow)">
    <circle cx="0" cy="0" r="40" fill="white" opacity="0.9"/>
    <g transform="scale(0.08)">
      <!-- Gear icon -->
      <path d="M0 -170 L-40 -170 L-60 -100 L-120 -120 L-170 -60 L-140 -10 L-170 40 L-120 90 L-60 70 L-40 130 L0 130 L40 130 L60 70 L120 90 L170 40 L140 -10 L170 -60 L120 -120 L60 -100 L40 -170 Z" fill="#8b5cf6"/>
      <circle cx="0" cy="0" r="60" fill="white"/>
      <circle cx="0" cy="0" r="40" fill="#8b5cf6"/>
    </g>
  </g>
  
  <!-- Abstract connections -->
  <g stroke="#6b7280" stroke-width="2" stroke-dasharray="5,5" opacity="0.5">
    <line x1="300" y1="520" x2="150" y2="120"/>
    <line x1="400" y1="520" x2="370" y2="180"/>
    <line x1="500" y1="520" x2="610" y2="220"/>
  </g>
</svg>
