<?xml version="1.0" encoding="UTF-8"?>
<svg xmlns="http://www.w3.org/2000/svg" viewBox="0 0 800 600" width="800" height="600">
  <!-- Background with gradient -->
  <defs>
    <linearGradient id="bg-gradient" x1="0%" y1="0%" x2="100%" y2="100%">
      <stop offset="0%" stop-color="#8b5cf6" stop-opacity="0.2"/>
      <stop offset="100%" stop-color="#10b981" stop-opacity="0.2"/>
    </linearGradient>
    <filter id="shadow" x="-20%" y="-20%" width="140%" height="140%">
      <feGaussianBlur in="SourceAlpha" stdDeviation="5"/>
      <feOffset dx="2" dy="2" result="offsetblur"/>
      <feComponentTransfer>
        <feFuncA type="linear" slope="0.2"/>
      </feComponentTransfer>
      <feMerge>
        <feMergeNode/>
        <feMergeNode in="SourceGraphic"/>
      </feMerge>
    </filter>
    <linearGradient id="brain-gradient" x1="0%" y1="0%" x2="100%" y2="100%">
      <stop offset="0%" stop-color="#8b5cf6"/>
      <stop offset="100%" stop-color="#3b82f6"/>
    </linearGradient>
    <linearGradient id="circuit-gradient" x1="0%" y1="0%" x2="100%" y2="100%">
      <stop offset="0%" stop-color="#10b981"/>
      <stop offset="100%" stop-color="#3b82f6"/>
    </linearGradient>
  </defs>
  
  <!-- Background -->
  <rect width="800" height="600" fill="url(#bg-gradient)"/>
  
  <!-- Abstract shapes -->
  <g opacity="0.3">
    <circle cx="100" cy="100" r="50" fill="#8b5cf6"/>
    <circle cx="700" cy="500" r="70" fill="#10b981"/>
    <circle cx="200" cy="450" r="40" fill="#3b82f6"/>
    <circle cx="600" cy="150" r="60" fill="#f59e0b"/>
  </g>
  
  <!-- Circuit board pattern -->
  <g stroke="#10b981" stroke-width="3" fill="none" opacity="0.7">
    <path d="M100 300 H300 V200 H500 V100 H700" />
    <path d="M100 350 H250 V400 H550 V300 H700" />
    <path d="M100 400 H200 V500 H600 V450 H700" />
    <path d="M400 100 V500" />
    <path d="M300 200 V400" />
    <path d="M500 100 V300" />
    <path d="M600 300 V450" />
    
    <!-- Connection points -->
    <circle cx="300" cy="200" r="8" fill="#10b981"/>
    <circle cx="500" cy="100" r="8" fill="#10b981"/>
    <circle cx="400" cy="300" r="8" fill="#10b981"/>
    <circle cx="250" cy="400" r="8" fill="#10b981"/>
    <circle cx="550" cy="300" r="8" fill="#10b981"/>
    <circle cx="600" cy="450" r="8" fill="#10b981"/>
    <circle cx="300" cy="400" r="8" fill="#10b981"/>
    <circle cx="500" cy="300" r="8" fill="#10b981"/>
    <circle cx="400" cy="500" r="8" fill="#10b981"/>
  </g>
  
  <!-- Brain outline (representing AI) -->
  <g transform="translate(400, 250) scale(0.8)" filter="url(#shadow)">
    <path d="M-100 -50 C-120 -80 -120 -120 -80 -130 C-60 -150 -20 -150 0 -130 C20 -150 60 -150 80 -130 C120 -120 120 -80 100 -50 C130 -30 130 10 100 30 C120 60 100 100 60 110 C40 130 0 130 -20 110 C-40 130 -80 130 -100 110 C-140 100 -160 60 -140 30 C-170 10 -170 -30 -140 -50 C-120 -80 -120 -120 -80 -130" 
          fill="url(#brain-gradient)" stroke="#8b5cf6" stroke-width="5"/>
    
    <!-- Brain details -->
    <path d="M-20 -110 C-10 -120 10 -120 20 -110 C30 -100 30 -80 20 -70 C10 -60 -10 -60 -20 -70 C-30 -80 -30 -100 -20 -110" 
          fill="white" opacity="0.5" stroke="#8b5cf6" stroke-width="2"/>
    <path d="M-60 -90 C-50 -100 -30 -100 -20 -90 C-10 -80 -10 -60 -20 -50 C-30 -40 -50 -40 -60 -50 C-70 -60 -70 -80 -60 -90" 
          fill="white" opacity="0.5" stroke="#8b5cf6" stroke-width="2"/>
    <path d="M20 -90 C30 -100 50 -100 60 -90 C70 -80 70 -60 60 -50 C50 -40 30 -40 20 -50 C10 -60 10 -80 20 -90" 
          fill="white" opacity="0.5" stroke="#8b5cf6" stroke-width="2"/>
    <path d="M-60 -30 C-50 -40 -30 -40 -20 -30 C-10 -20 -10 0 -20 10 C-30 20 -50 20 -60 10 C-70 0 -70 -20 -60 -30" 
          fill="white" opacity="0.5" stroke="#8b5cf6" stroke-width="2"/>
    <path d="M20 -30 C30 -40 50 -40 60 -30 C70 -20 70 0 60 10 C50 20 30 20 20 10 C10 0 10 -20 20 -30" 
          fill="white" opacity="0.5" stroke="#8b5cf6" stroke-width="2"/>
    <path d="M-40 30 C-30 20 -10 20 0 30 C10 40 10 60 0 70 C-10 80 -30 80 -40 70 C-50 60 -50 40 -40 30" 
          fill="white" opacity="0.5" stroke="#8b5cf6" stroke-width="2"/>
  </g>
  
  <!-- Organization structure (representing implementation) -->
  <g transform="translate(400, 450)" filter="url(#shadow)">
    <rect x="-150" y="-50" width="300" height="100" rx="10" fill="url(#circuit-gradient)" stroke="#10b981" stroke-width="3"/>
    
    <!-- Connection lines -->
    <line x1="-100" y1="-50" x2="-100" y2="-80" stroke="#10b981" stroke-width="3"/>
    <line x1="0" y1="-50" x2="0" y2="-80" stroke="#10b981" stroke-width="3"/>
    <line x1="100" y1="-50" x2="100" y2="-80" stroke="#10b981" stroke-width="3"/>
    
    <!-- Small boxes (departments) -->
    <rect x="-130" y="-110" width="60" height="30" rx="5" fill="white" stroke="#10b981" stroke-width="2"/>
    <rect x="-30" y="-110" width="60" height="30" rx="5" fill="white" stroke="#10b981" stroke-width="2"/>
    <rect x="70" y="-110" width="60" height="30" rx="5" fill="white" stroke="#10b981" stroke-width="2"/>
  </g>
  
  <!-- Connection between AI and Organization -->
  <g stroke-dasharray="5,5" stroke="#6b7280" stroke-width="3" opacity="0.7">
    <line x1="400" y1="320" x2="400" y2="380"/>
  </g>
  
  <!-- Icons representing implementation steps -->
  <g transform="translate(200, 520)" filter="url(#shadow)">
    <circle cx="0" cy="0" r="40" fill="white" opacity="0.9"/>
    <g transform="scale(0.07)">
      <!-- Planning icon -->
      <rect x="-150" y="-150" width="300" height="300" rx="20" fill="#8b5cf6"/>
      <line x1="-100" y1="-50" x2="100" y2="-50" stroke="white" stroke-width="20"/>
      <line x1="-100" y1="0" x2="50" y2="0" stroke="white" stroke-width="20"/>
      <line x1="-100" y1="50" x2="100" y2="50" stroke="white" stroke-width="20"/>
    </g>
  </g>
  
  <g transform="translate(400, 520)" filter="url(#shadow)">
    <circle cx="0" cy="0" r="40" fill="white" opacity="0.9"/>
    <g transform="scale(0.07)">
      <!-- Implementation icon -->
      <path d="M0 -150 L-130 -50 L-130 100 L-50 150 L50 150 L130 100 L130 -50 Z" fill="#3b82f6"/>
      <path d="M0 -50 L-50 -20 L-50 40 L0 70 L50 40 L50 -20 Z" fill="white"/>
    </g>
  </g>
  
  <g transform="translate(600, 520)" filter="url(#shadow)">
    <circle cx="0" cy="0" r="40" fill="white" opacity="0.9"/>
    <g transform="scale(0.07)">
      <!-- Success metrics icon -->
      <circle cx="0" cy="0" r="150" fill="#10b981"/>
      <path d="M0 0 L0 -120 A120 120 0 0 1 104 60 Z" fill="white"/>
      <path d="M0 0 L104 60 A120 120 0 0 1 -104 60 Z" fill="white" opacity="0.7"/>
      <path d="M0 0 L-104 60 A120 120 0 0 1 0 -120 Z" fill="white" opacity="0.4"/>
      <circle cx="0" cy="0" r="30" fill="white"/>
    </g>
  </g>
  
  <!-- Connection lines between steps -->
  <g stroke="#6b7280" stroke-width="3" opacity="0.5">
    <line x1="250" y1="520" x2="350" y2="520"/>
    <line x1="450" y1="520" x2="550" y2="520"/>
  </g>
</svg>
