<?xml version="1.0" encoding="UTF-8" standalone="no"?>
<svg width="800" height="400" viewBox="0 0 800 400" xmlns="http://www.w3.org/2000/svg">
  <rect width="800" height="400" fill="#0f172a"/>
  
  <!-- Gear background elements -->
  <g opacity="0.1" fill="#64748b">
    <circle cx="200" cy="150" r="80"/>
    <circle cx="600" cy="250" r="100"/>
    <circle cx="400" cy="320" r="60"/>
  </g>
  
  <!-- Implementation process flow -->
  <g fill="none" stroke="#22c55e" stroke-width="3">
    <!-- Process boxes -->
    <rect x="150" y="120" width="120" height="60" rx="10" stroke="#22c55e" fill="#0f172a"/>
    <rect x="340" y="120" width="120" height="60" rx="10" stroke="#22c55e" fill="#0f172a"/>
    <rect x="530" y="120" width="120" height="60" rx="10" stroke="#22c55e" fill="#0f172a"/>
    
    <rect x="150" y="220" width="120" height="60" rx="10" stroke="#22c55e" fill="#0f172a"/>
    <rect x="340" y="220" width="120" height="60" rx="10" stroke="#22c55e" fill="#0f172a"/>
    <rect x="530" y="220" width="120" height="60" rx="10" stroke="#22c55e" fill="#0f172a"/>
    
    <!-- Connecting arrows -->
    <path d="M270,150 L340,150" stroke="#22c55e" stroke-width="2" fill="none"/>
    <path d="M460,150 L530,150" stroke="#22c55e" stroke-width="2" fill="none"/>
    
    <path d="M270,250 L340,250" stroke="#22c55e" stroke-width="2" fill="none"/>
    <path d="M460,250 L530,250" stroke="#22c55e" stroke-width="2" fill="none"/>
    
    <path d="M210,180 L210,220" stroke="#22c55e" stroke-width="2" fill="none"/>
    <path d="M400,180 L400,220" stroke="#22c55e" stroke-width="2" fill="none"/>
    <path d="M590,180 L590,220" stroke="#22c55e" stroke-width="2" fill="none"/>
    
    <!-- Arrow heads -->
    <polygon points="335,145 335,155 345,150" fill="#22c55e"/>
    <polygon points="525,145 525,155 535,150" fill="#22c55e"/>
    
    <polygon points="335,245 335,255 345,250" fill="#22c55e"/>
    <polygon points="525,245 525,255 535,250" fill="#22c55e"/>
    
    <polygon points="205,215 215,215 210,225" fill="#22c55e"/>
    <polygon points="395,215 405,215 400,225" fill="#22c55e"/>
    <polygon points="585,215 595,215 590,225" fill="#22c55e"/>
  </g>
  
  <!-- Box text -->
  <g font-family="Arial, sans-serif" fill="#ffffff" text-anchor="middle">
    <text x="210" y="150" font-size="14">Assessment</text>
    <text x="400" y="150" font-size="14">Design</text>
    <text x="590" y="150" font-size="14">Development</text>
    
    <text x="210" y="250" font-size="14">Testing</text>
    <text x="400" y="250" font-size="14">Deployment</text>
    <text x="590" y="250" font-size="14">Monitoring</text>
  </g>
  
  <text x="400" y="340" font-family="Arial, sans-serif" font-size="24" fill="#ffffff" text-anchor="middle">AI Implementation</text>
  <text x="400" y="370" font-family="Arial, sans-serif" font-size="16" fill="#a0a0a0" text-anchor="middle">Strategic Framework for Business Integration</text>
</svg>
