<svg width="200" height="200" viewBox="0 0 200 200" xmlns="http://www.w3.org/2000/svg">
  <defs>
    <pattern id="enterprisePattern" x="0" y="0" width="80" height="80" patternUnits="userSpaceOnUse">
      <!-- Bar chart -->
      <rect x="8" y="25" width="4" height="15" fill="#FFD700" opacity="0.4"/>
      <rect x="14" y="20" width="4" height="20" fill="#FFD700" opacity="0.4"/>
      <rect x="20" y="15" width="4" height="25" fill="#FFD700" opacity="0.4"/>
      <rect x="26" y="22" width="4" height="18" fill="#FFD700" opacity="0.4"/>
      <!-- Line chart -->
      <polyline points="35,35 40,30 45,32 50,25 55,28" fill="none" stroke="#FFD700" stroke-width="2" opacity="0.4"/>
      <circle cx="35" cy="35" r="1.5" fill="#FFD700" opacity="0.4"/>
      <circle cx="40" cy="30" r="1.5" fill="#FFD700" opacity="0.4"/>
      <circle cx="45" cy="32" r="1.5" fill="#FFD700" opacity="0.4"/>
      <circle cx="50" cy="25" r="1.5" fill="#FFD700" opacity="0.4"/>
      <circle cx="55" cy="28" r="1.5" fill="#FFD700" opacity="0.4"/>
      <!-- Pie chart -->
      <path d="M15 55 L15 45 A10 10 0 0 1 25 55 Z" fill="#FFD700" opacity="0.4"/>
      <path d="M15 55 L25 55 A10 10 0 0 1 15 45 Z" fill="none" stroke="#FFD700" stroke-width="1" opacity="0.4"/>
      <!-- Strategy/target icon -->
      <circle cx="50" cy="55" r="8" fill="none" stroke="#FFD700" stroke-width="1" opacity="0.4"/>
      <circle cx="50" cy="55" r="4" fill="none" stroke="#FFD700" stroke-width="1" opacity="0.4"/>
      <circle cx="50" cy="55" r="1" fill="#FFD700" opacity="0.4"/>
      <line x1="42" y1="55" x2="46" y2="55" stroke="#FFD700" stroke-width="1" opacity="0.4"/>
      <line x1="50" y1="47" x2="50" y2="51" stroke="#FFD700" stroke-width="1" opacity="0.4"/>
      <line x1="54" y1="55" x2="58" y2="55" stroke="#FFD700" stroke-width="1" opacity="0.4"/>
      <line x1="50" y1="59" x2="50" y2="63" stroke="#FFD700" stroke-width="1" opacity="0.4"/>
      <!-- Briefcase/business icon -->
      <rect x="8" y="60" width="12" height="8" fill="none" stroke="#FFD700" stroke-width="1" opacity="0.4"/>
      <rect x="10" y="58" width="8" height="2" fill="#FFD700" opacity="0.4"/>
    </pattern>
  </defs>
  <rect width="200" height="200" fill="url(#enterprisePattern)"/>
</svg>
